<svg width="1403" height="210" viewBox="0 0 1403 210" fill="none" xmlns="http://www.w3.org/2000/svg">
<circle cx="242.86" cy="146.426" r="2.40721" fill="white"/>
<circle cx="385.688" cy="76.6168" r="2.40721" fill="white"/>
<circle cx="593.624" cy="152.407" r="2.40721" fill="white"/>
<circle cx="851.885" cy="108.713" r="2.40721" fill="white"/>
<circle cx="1026.81" cy="94.2697" r="2.40721" fill="white"/>
<circle cx="134.536" cy="144.019" r="2.40721" fill="white"/>
<circle cx="80.7748" cy="98.2817" r="2.40721" fill="white"/>
<circle cx="1381.05" cy="114.45" r="2.40721" transform="rotate(180 1381.05 114.45)" fill="white"/>
<circle cx="260.457" cy="89.4896" r="1.45154" transform="rotate(0.229737 260.457 89.4896)" fill="white"/>
<circle cx="667.911" cy="76.6078" r="1.45154" transform="rotate(0.229737 667.911 76.6078)" fill="white"/>
<circle cx="541.679" cy="63.5216" r="1.45154" transform="rotate(0.229737 541.679 63.5216)" fill="white"/>
<circle cx="81.674" cy="60.4573" r="1.45154" transform="rotate(0.229737 81.674 60.4573)" fill="white"/>
<circle cx="161.753" cy="89.0938" r="1.45154" transform="rotate(0.229737 161.753 89.0938)" fill="white"/>
<circle cx="26.7419" cy="93.391" r="1.45154" transform="rotate(0.229737 26.7419 93.391)" fill="white"/>
<circle cx="1.45737" cy="162.49" r="1.45154" transform="rotate(0.229737 1.45737 162.49)" fill="white"/>
<circle cx="481.674" cy="93.4574" r="1.45154" transform="rotate(0.229737 481.674 93.4574)" fill="white"/>
<circle cx="303.399" cy="157.894" r="1.45154" transform="rotate(0.229737 303.399 157.894)" fill="white"/>
<circle cx="381.674" cy="129.457" r="1.45154" transform="rotate(0.229737 381.674 129.457)" fill="white"/>
<circle cx="1004.45" cy="67.4346" r="1.45154" transform="rotate(7.05533 1004.45 67.4346)" fill="white"/>
<circle cx="1184.84" cy="64.6188" r="1.45154" transform="rotate(7.05533 1184.84 64.6188)" fill="white"/>
<circle cx="1253.09" cy="67.4923" r="1.45154" transform="rotate(7.05533 1253.09 67.4923)" fill="white"/>
<circle cx="1400.84" cy="45.6188" r="1.45154" transform="rotate(7.05533 1400.84 45.6188)" fill="white"/>
<circle cx="911.022" cy="26.6188" r="1.45154" transform="rotate(7.05533 911.022 26.6188)" fill="white"/>
<circle cx="838.835" cy="34.7485" r="1.45154" transform="rotate(7.05533 838.835 34.7485)" fill="white"/>
<circle cx="1.45154" cy="1.45154" r="1.45154" transform="matrix(-0.999992 0.00400965 0.00400965 0.999992 933.12 110)" fill="white"/>
<circle cx="1.45154" cy="1.45154" r="1.45154" transform="matrix(-0.999992 0.00400965 0.00400965 0.999992 740.815 191.298)" fill="white"/>
<circle cx="1.45154" cy="1.45154" r="1.45154" transform="matrix(-0.999992 0.00400965 0.00400965 0.999992 561.683 164.437)" fill="white"/>
<circle cx="1.45154" cy="1.45154" r="1.45154" transform="matrix(-0.999992 0.00400965 0.00400965 0.999992 456.17 156.151)" fill="white"/>
<circle cx="1.45154" cy="1.45154" r="1.45154" transform="matrix(-0.999992 0.00400965 0.00400965 0.999992 1100.12 157)" fill="white"/>
<circle cx="1201.18" cy="128.864" r="1.45154" transform="rotate(-179.77 1201.18 128.864)" fill="white"/>
<circle cx="1078.37" cy="106.598" r="1.45154" transform="rotate(-179.77 1078.37 106.598)" fill="white"/>
<circle cx="899.237" cy="133.459" r="1.45154" transform="rotate(-179.77 899.237 133.459)" fill="white"/>
<circle cx="801.674" cy="171.457" r="1.45154" transform="rotate(-179.77 801.674 171.457)" fill="white"/>
<circle cx="1331.88" cy="113.905" r="1.45154" transform="rotate(-179.77 1331.88 113.905)" fill="white"/>
<circle cx="1364.18" cy="141.614" r="1.45154" transform="rotate(-179.77 1364.18 141.614)" fill="white"/>
<circle cx="0.760416" cy="0.760416" r="0.760416" transform="matrix(-0.997357 0.0726624 0.0726624 0.997357 579.695 75.6952)" fill="white"/>
<circle cx="0.760416" cy="0.760416" r="0.760416" transform="matrix(-0.997357 0.0726624 0.0726624 0.997357 648.541 78.8121)" fill="white"/>
<circle cx="0.760416" cy="0.760416" r="0.760416" transform="matrix(-0.997357 0.0726624 0.0726624 0.997357 664.43 63.1682)" fill="white"/>
<circle cx="416.07" cy="48.1193" r="0.760416" transform="rotate(176.293 416.07 48.1193)" fill="white"/>
<circle cx="425.913" cy="58.9118" r="0.760416" transform="rotate(176.293 425.913 58.9118)" fill="white"/>
<circle cx="308.233" cy="98.2153" r="0.760416" transform="rotate(176.293 308.233 98.2153)" fill="white"/>
<circle cx="490.202" cy="78.9468" r="0.760416" transform="rotate(176.293 490.202 78.9468)" fill="white"/>
<circle cx="561.025" cy="17.808" r="0.760416" transform="rotate(176.293 561.025 17.808)" fill="white"/>
<circle cx="0.760416" cy="0.760416" r="0.760416" transform="matrix(-0.999992 0.00400965 0.00400965 0.999992 68.6902 44.132)" fill="white"/>
<circle cx="0.760416" cy="0.760416" r="0.760416" transform="matrix(-0.999992 0.00400965 0.00400965 0.999992 30.5942 68.2926)" fill="white"/>
<circle cx="0.760416" cy="0.760416" r="0.760416" transform="matrix(-0.999992 0.00400965 0.00400965 0.999992 83.7374 1)" fill="white"/>
<circle cx="0.760416" cy="0.760416" r="0.760416" transform="matrix(-0.999992 0.00400965 0.00400965 0.999992 251.553 50.8606)" fill="white"/>
<circle cx="0.760416" cy="0.760416" r="0.760416" transform="matrix(-0.999992 0.00400965 0.00400965 0.999992 268.478 36.3446)" fill="white"/>
<circle cx="116.418" cy="140.325" r="0.760416" transform="rotate(0.229737 116.418 140.325)" fill="white"/>
<circle cx="119.788" cy="184.006" r="0.760416" transform="rotate(0.229737 119.788 184.006)" fill="white"/>
<circle cx="110.709" cy="172.563" r="0.760416" transform="rotate(0.229737 110.709 172.563)" fill="white"/>
<circle cx="230.81" cy="141.433" r="0.760416" transform="rotate(0.229737 230.81 141.433)" fill="white"/>
<circle cx="219.955" cy="130.236" r="0.760416" transform="rotate(0.229737 219.955 130.236)" fill="white"/>
<circle cx="31.0227" cy="133.645" r="0.760416" transform="rotate(0.229737 31.0227 133.645)" fill="white"/>
<circle cx="187.98" cy="203.763" r="0.760416" transform="rotate(0.229737 187.98 203.763)" fill="white"/>
<circle cx="5.11057" cy="147.99" r="0.760416" transform="rotate(0.229737 5.11057 147.99)" fill="white"/>
<circle cx="715.014" cy="133.772" r="0.760416" transform="rotate(4.16692 715.014 133.772)" fill="white"/>
<circle cx="750.151" cy="171.221" r="0.760416" transform="rotate(4.16692 750.151 171.221)" fill="white"/>
<circle cx="741.879" cy="159.181" r="0.760416" transform="rotate(4.16692 741.879 159.181)" fill="white"/>
<circle cx="900.181" cy="163.09" r="0.760416" transform="rotate(4.16692 900.181 163.09)" fill="white"/>
<circle cx="627.499" cy="121.043" r="0.760416" transform="rotate(4.16692 627.499 121.043)" fill="white"/>
<circle cx="638.217" cy="127.415" r="0.760416" transform="rotate(4.16692 638.217 127.415)" fill="white"/>
<circle cx="0.760416" cy="0.760416" r="0.760416" transform="matrix(0.997907 0.064662 0.064662 -0.997907 905.54 143.078)" fill="white"/>
<circle cx="0.760416" cy="0.760416" r="0.760416" transform="matrix(0.997907 0.064662 0.064662 -0.997907 902.058 110.523)" fill="white"/>
<circle cx="0.760416" cy="0.760416" r="0.760416" transform="matrix(0.997907 0.064662 0.064662 -0.997907 795.022 127.788)" fill="white"/>
<circle cx="1274.38" cy="172.284" r="0.760416" transform="rotate(4.16692 1274.38 172.284)" fill="white"/>
<circle cx="1055.14" cy="139.722" r="0.760416" transform="rotate(4.16692 1055.14 139.722)" fill="white"/>
<circle cx="0.760416" cy="0.760416" r="0.760416" transform="matrix(0.997907 0.064662 0.064662 -0.997907 1382.34 169.446)" fill="white"/>
<circle cx="0.760416" cy="0.760416" r="0.760416" transform="matrix(0.997907 0.064662 0.064662 -0.997907 1228.14 148.928)" fill="white"/>
<circle cx="1112.03" cy="48.3421" r="0.760416" transform="rotate(4.16692 1112.03 48.3421)" fill="white"/>
<circle cx="1239.03" cy="110.814" r="0.760416" transform="rotate(4.16692 1239.03 110.814)" fill="white"/>
<circle cx="1262.43" cy="84.0215" r="0.760416" transform="rotate(4.16692 1262.43 84.0215)" fill="white"/>
<circle cx="1027.3" cy="35.8151" r="0.760416" transform="rotate(4.16692 1027.3 35.8151)" fill="white"/>
<circle cx="0.760416" cy="0.760416" r="0.760416" transform="matrix(0.997907 0.064662 0.064662 -0.997907 1274.15 20.6622)" fill="white"/>
<circle cx="0.760416" cy="0.760416" r="0.760416" transform="matrix(0.997907 0.064662 0.064662 -0.997907 1318.74 70.7241)" fill="white"/>
<circle cx="0.760416" cy="0.760416" r="0.760416" transform="matrix(0.997907 0.064662 0.064662 -0.997907 1186.51 1.51764)" fill="white"/>
<circle cx="0.760416" cy="0.760416" r="0.760416" transform="matrix(0.997907 0.064662 0.064662 -0.997907 1322.18 47.4533)" fill="white"/>
<circle cx="0.760416" cy="0.760416" r="0.760416" transform="matrix(0.997907 0.064662 0.064662 -0.997907 1140.22 91.5176)" fill="white"/>
<circle cx="0.760416" cy="0.760416" r="0.760416" transform="matrix(0.997357 -0.0726624 -0.0726624 -0.997357 803.329 92.1638)" fill="white"/>
<circle cx="0.760416" cy="0.760416" r="0.760416" transform="matrix(0.997357 -0.0726624 -0.0726624 -0.997357 844.327 7.62732)" fill="white"/>
<circle cx="0.760416" cy="0.760416" r="0.760416" transform="matrix(0.997357 -0.0726624 -0.0726624 -0.997357 734.483 89.0469)" fill="white"/>
<circle cx="0.760416" cy="0.760416" r="0.760416" transform="matrix(0.997357 -0.0726624 -0.0726624 -0.997357 888.109 59.5417)" fill="white"/>
<circle cx="874.941" cy="75.5926" r="0.760416" transform="rotate(-3.70745 874.941 75.5926)" fill="white"/>
<circle cx="1032.87" cy="106.268" r="0.760416" transform="rotate(-3.70745 1032.87 106.268)" fill="white"/>
<circle cx="838.585" cy="86.8384" r="0.760416" transform="rotate(-3.70745 838.585 86.8384)" fill="white"/>
<circle cx="0.760416" cy="0.760416" r="0.760416" transform="matrix(0.997357 -0.0726624 -0.0726624 -0.997357 339.95 170.313)" fill="white"/>
<circle cx="0.760416" cy="0.760416" r="0.760416" transform="matrix(0.997357 -0.0726624 -0.0726624 -0.997357 458.545 127.423)" fill="white"/>
<circle cx="0.760416" cy="0.760416" r="0.760416" transform="matrix(0.997357 -0.0726624 -0.0726624 -0.997357 490.344 134.634)" fill="white"/>
<circle cx="0.760416" cy="0.760416" r="0.760416" transform="matrix(0.997357 -0.0726624 -0.0726624 -0.997357 226.327 125.627)" fill="white"/>
<circle cx="503.575" cy="197.889" r="0.760416" transform="rotate(-3.70745 503.575 197.889)" fill="white"/>
<circle cx="493.732" cy="187.097" r="0.760416" transform="rotate(-3.70745 493.732 187.097)" fill="white"/>
<circle cx="655.025" cy="209.808" r="0.760416" transform="rotate(-3.70745 655.025 209.808)" fill="white"/>
<circle cx="377.416" cy="179.929" r="0.760416" transform="rotate(-3.70745 377.416 179.929)" fill="white"/>
</svg>
