<svg width="1440" height="148" viewBox="0 0 1440 148" fill="none" xmlns="http://www.w3.org/2000/svg">
<path d="M1325 22.4999C1443.26 22.4999 1411.37 58.7119 1440 64.7235V148H0V-3.05176e-05C23 0 36.5 0.999969 48.0323 8.11419C70.432 21.9324 44.1509 64.7235 89.7574 57.209C135.364 49.6945 127.116 114.319 192.615 114.319C258.113 114.319 238.126 51.9705 277.5 71.0001C292.5 78.2496 335.5 87.5001 377.951 78.2496C400.232 73.3945 400.755 122.836 411.429 122.836C422.102 122.836 424.724 89.9 451.213 93.2786C467.49 95.3547 485 102 500.5 102C514.148 109.207 512.946 136.938 529 139C583.5 146 666.071 139 717.5 139C768.929 139 835.359 99.2199 874.286 114.319C916 130.5 949.772 42.0241 980.5 29.4999C1116 3.99992 1070.97 52.2029 1110.08 64.7235C1125 69.4999 1130.55 50.1479 1156 47.4999C1173.43 45.6863 1194.61 55.6854 1202.5 56.4999C1218.03 58.103 1209.5 106 1226.5 96.4999C1244.19 86.6132 1220.5 22.4999 1325 22.4999Z" fill="white"/>
</svg>
