<?xml version="1.0" encoding="UTF-8"?>
<svg version="1.1" xmlns="http://www.w3.org/2000/svg" width="210" height="349">
<path d="M0 0 C0.89332031 0.28875 1.78664063 0.5775 2.70703125 0.875 C22.00403919 7.68213351 37.18723132 23.97967174 46.171875 41.90625 C51.63746677 53.56466405 54.17385536 66.06366416 54.25 78.875 C54.2809375 80.16470703 54.2809375 80.16470703 54.3125 81.48046875 C54.35526943 88.52673188 53.19789872 94.00286539 48.9375 99.8125 C44.7036792 102.96534528 39.35614815 105 34 105 C34.02094727 105.61294922 34.04189453 106.22589844 34.06347656 106.85742188 C34.65666187 126.93561816 31.79279729 141.48939498 22.7097168 159.48999023 C19.80301731 165.41493963 17.53061592 170.37691748 19 177 C20.55716781 181.36264673 22.51702895 185.47262416 24.5625 189.625 C25.110271 190.77492432 25.65804199 191.92484863 26.22241211 193.10961914 C27.79881401 196.41449716 29.39546265 199.70870847 31 203 C39.60668655 220.73214182 45.47915716 238.70602019 38.8125 258.3125 C36.75644952 263.65823125 34.32586526 268.34378863 31 273 C31.77085937 273.55429687 32.54171875 274.10859375 33.3359375 274.6796875 C34.33882812 275.40414063 35.34171875 276.12859375 36.375 276.875 C37.87160156 277.95394531 37.87160156 277.95394531 39.3984375 279.0546875 C42 281 42 281 44 283 C43.43181818 288.56818182 43.43181818 288.56818182 42 290 C36.81901273 290.5469664 33.98865857 289.21516533 29.625 286.5 C28.56539062 285.8503125 27.50578125 285.200625 26.4140625 284.53125 C25.61742187 284.0259375 24.82078125 283.520625 24 283 C23.20565552 283.62044189 23.20565552 283.62044189 22.39526367 284.25341797 C19.99352504 286.12836947 17.59052797 288.00170131 15.1875 289.875 C14.35412109 290.52597656 13.52074219 291.17695313 12.66210938 291.84765625 C11.85966797 292.47285156 11.05722656 293.09804688 10.23046875 293.7421875 C9.12288208 294.60626221 9.12288208 294.60626221 7.99291992 295.48779297 C4.03355798 298.49211588 1.98995272 299.42467683 -3 299 C-3.66 298.34 -4.32 297.68 -5 297 C-4.87951093 293.34014435 -4.42512004 291.49850385 -2.03125 288.69140625 C-1.1959375 287.98886719 -0.360625 287.28632813 0.5 286.5625 C1.84191406 285.42167969 1.84191406 285.42167969 3.2109375 284.2578125 C7.09681031 281.11210594 11.00248791 278.00296198 15 275 C13.92424145 272.76689448 12.83977517 270.53875499 11.75 268.3125 C11.44964844 267.68666016 11.14929688 267.06082031 10.83984375 266.41601562 C8.93503765 262.54561174 6.84171786 259.2880939 4 256 C3.73783691 256.50974365 3.47567383 257.0194873 3.20556641 257.54467773 C2.01802925 259.84543249 0.82165039 262.14147295 -0.375 264.4375 C-0.7875 265.23994141 -1.2 266.04238281 -1.625 266.86914062 C-2.02460938 267.63291016 -2.42421875 268.39667969 -2.8359375 269.18359375 C-3.20251465 269.89056396 -3.5690918 270.59753418 -3.94677734 271.32592773 C-5 273 -5 273 -7 274 C-10.0625 274.125 -10.0625 274.125 -13 274 C-14 273 -14 273 -14.296875 269.875 C-13.9588593 265.46300554 -12.49590071 262.67848539 -10.25 259 C0.17571843 240.65119435 0.78198893 220.36318225 -4.72924805 200.29785156 C-6.58953126 193.85824737 -8.64572041 187.83893114 -12 182 C-13.97295034 193.59108325 -13.60166949 204.99024835 -6.9375 215.125 C-5.38537295 217.28139025 -3.88123025 219.11876975 -2 221 C-2.32971479 224.29714793 -2.6226839 225.6226839 -5 228 C-8.23231635 228.52415941 -9.67736107 228.19358336 -12.5 226.5 C-17.2228456 221.7771544 -20.22570162 216.45199411 -22 210 C-21.55141444 216.88346807 -20.61632602 223.63702417 -19.5 230.4375 C-15.23726285 256.83525461 -13.14058869 290.81794183 -29 314 C-32.25716142 318.28534371 -34.36469638 320.7587257 -39.8125 321.5625 C-43 321 -43 321 -45 319 C-44.9375 316.125 -44.9375 316.125 -44 313 C-42.33784732 311.66104368 -40.67036393 310.32869858 -39 309 C-33.2879478 300.74925794 -30.73918851 291.379173 -29.3125 281.5625 C-29.18657471 280.69633057 -29.06064941 279.83016113 -28.9309082 278.93774414 C-26.89435577 263.8021747 -28.12623353 249.09051213 -30 234 C-36.36975777 240.36975777 -37.72991323 254.31218922 -38.078125 262.8046875 C-37.93569841 268.62993489 -36.74072386 273.81897974 -34.875 279.3125 C-33.97210134 282.08568873 -33.67852276 284.10670481 -34 287 C-36 289 -36 289 -38.9375 289.375 C-42 289 -42 289 -43.5546875 287.4765625 C-45.49500019 284.15181049 -46.34718126 280.71930241 -47.1875 277 C-47.35967041 276.24033936 -47.53184082 275.48067871 -47.70922852 274.69799805 C-51.57163425 256.62316114 -45.83216262 240.70857054 -39.40820312 223.88476562 C-38.97056641 222.70720703 -38.53292969 221.52964844 -38.08203125 220.31640625 C-37.68218018 219.26912354 -37.2823291 218.22184082 -36.87036133 217.14282227 C-31.90078442 199.19797975 -47.88986326 173.26713102 -55 157 C-57.55455456 166.70730734 -58.46948218 173.35378817 -55 183 C-47.50010375 208.8519151 -46.85325696 232.26816388 -58 257 C-59.49609375 259.4296875 -59.49609375 259.4296875 -61 261 C-64.0625 261.375 -64.0625 261.375 -67 261 C-67.66 260.34 -68.32 259.68 -69 259 C-68.89349832 254.20742447 -67.42536946 250.42205551 -65.625 246 C-58.20411772 227.26496096 -59.30944562 210.16719172 -64 191 C-64.33 190.34 -64.66 189.68 -65 189 C-74.69321651 205.46007565 -74.69321651 205.46007565 -75 224 C-74.443125 224.86625 -73.88625 225.7325 -73.3125 226.625 C-72 229 -72 229 -72.6875 232.125 C-74 235 -74 235 -76 238 C-80.10352468 236.48017604 -82.7210177 233.63992932 -85 230 C-88.99939234 220.07330312 -87.09874869 209.31701482 -83.0390625 199.73095703 C-80.15753929 193.33310696 -77.14416187 186.96560327 -73.80615234 180.79199219 C-73.25048584 179.75026855 -73.25048584 179.75026855 -72.68359375 178.6875 C-72.3477124 178.07777344 -72.01183105 177.46804687 -71.66577148 176.83984375 C-70.04126313 172.35055334 -72.42562225 167.62459983 -73.93359375 163.359375 C-79.72475302 146.86471124 -80.4486532 131.3548259 -80 114 C-81.22460938 114.03222656 -82.44921875 114.06445312 -83.7109375 114.09765625 C-89.61229116 114.08856125 -94.21373473 112.2835261 -98.796875 108.52734375 C-107.28085339 99.64436637 -107.40764817 85.89189896 -107.20703125 74.3125 C-106.35365516 51.02528014 -95.88537042 30.51088754 -79.04296875 14.66015625 C-57.90066851 -4.34710065 -26.4824747 -9.5695768 0 0 Z M-1 103 C-1.01458252 103.56170898 -1.02916504 104.12341797 -1.04418945 104.70214844 C-1.52441722 121.43375887 -2.51698882 138.22096427 -7.546875 154.296875 C-8.84948342 162.06760796 -5.76580845 168.91701683 -2.9375 176 C-2.56044922 176.96550781 -2.18339844 177.93101562 -1.79492188 178.92578125 C-0.87140115 181.28718868 0.06035233 183.6449741 1 186 C1.66 186 2.32 186 3 186 C5.97245424 177.97082082 7.62385402 171.54336518 5.75 163.0625 C3.85870089 154.3511508 3.69440606 145.80792155 3.75 136.9375 C3.7540686 136.24069122 3.75813721 135.54388245 3.7623291 134.82595825 C3.8408971 124.53160187 4.13464274 114.26066461 5 104 C2.03 103.505 2.03 103.505 -1 103 Z M-16 104 C-16.11097627 110.76261649 -15.69258682 117.33785639 -15 124.0625 C-14.90460938 125.02349609 -14.80921875 125.98449219 -14.7109375 126.97460938 C-14.4778808 129.31682923 -14.24083651 131.65856955 -14 134 C-13.67 134 -13.34 134 -13 134 C-11.5369561 127.10279303 -10.80612636 120.41150379 -10.8125 113.375 C-10.81185547 112.67632812 -10.81121094 111.97765625 -10.81054688 111.2578125 C-10.80679766 107.50299437 -10.80679766 107.50299437 -12 104 C-13.32 104 -14.64 104 -16 104 Z M16 104 C15.68080061 105.31088682 15.37014053 106.62385248 15.0625 107.9375 C14.88847656 108.66839844 14.71445313 109.39929688 14.53515625 110.15234375 C12.9943986 118.35097385 12.81738343 126.48625684 12.8125 134.8125 C12.80025391 135.93076172 12.78800781 137.04902344 12.77539062 138.20117188 C12.77345703 139.27560547 12.77152344 140.35003906 12.76953125 141.45703125 C12.76542236 142.42616455 12.76131348 143.39529785 12.75708008 144.39379883 C13.00679011 147.07284863 13.63327457 148.7070024 15 151 C20.65387919 139.49097083 24.22259251 129.90585513 24.375 117.0625 C24.38901855 116.23282715 24.40303711 115.4031543 24.41748047 114.54833984 C24.38916929 110.99782787 24.33007319 108.62114637 22.64453125 105.44921875 C21.02625531 103.73641925 21.02625531 103.73641925 18.3125 103.75 C17.549375 103.8325 16.78625 103.915 16 104 Z M-32 106 C-34.84424142 110.82338533 -33.94519483 115.16379182 -33.4375 120.5625 C-33.34380127 121.58811035 -33.25010254 122.6137207 -33.15356445 123.67041016 C-32.14323177 133.46146608 -29.84107048 142.60491511 -27 152 C-26.51882254 153.65175931 -26.03967191 155.30411034 -25.5625 156.95703125 C-24.397225 160.97822859 -23.20631356 164.99093238 -22 169 C-21.01 168.505 -21.01 168.505 -20 168 C-18.42272433 160.27456813 -19.70331966 153.64691492 -21.25 146 C-23.79193197 132.72006325 -25.57603175 119.44169283 -27 106 C-28.65 106 -30.3 106 -32 106 Z M-48 109 C-51.13850249 112.13850249 -49.98275782 122.65134034 -50 127 C-49.26175383 148.4438215 -39.49909875 167.74051853 -31 187 C-30.67 187 -30.34 187 -30 187 C-30.12068783 178.74934136 -30.62481206 171.05511172 -33.25 163.1875 C-33.46986572 162.52854736 -33.68973145 161.86959473 -33.91625977 161.19067383 C-34.37646572 159.82448351 -34.83832247 158.45884824 -35.30175781 157.09375 C-40.55972004 141.32721712 -42.51292935 125.51333627 -44 109 C-45.32 109 -46.64 109 -48 109 Z M-69 118 C-72.37373309 128.12119928 -69.02181686 139.8427772 -67 150 C-66.67 150 -66.34 150 -66 150 C-65.69072522 133.89490018 -65.69072522 133.89490018 -68 118 C-68.33 118 -68.66 118 -69 118 Z M12 193 C6.83155641 219.04293421 8.69138023 241.8220667 22 265 C22.66 265 23.32 265 24 265 C24.79807198 263.31551982 25.58812301 261.62723873 26.375 259.9375 C26.81585938 258.99777344 27.25671875 258.05804688 27.7109375 257.08984375 C30.25579197 250.98990469 31.362827 245.40418214 31.375 238.8125 C31.39949219 238.13380859 31.42398438 237.45511719 31.44921875 236.75585938 C31.5130558 225.25455093 25.81663649 215.10866033 20.375 205.3125 C19.78976563 204.23033203 19.20453125 203.14816406 18.6015625 202.03320312 C16.13824585 196.71672283 16.13824585 196.71672283 12 193 Z " fill="#FFFFFF" transform="translate(131,15)"/>
</svg>
