<?xml version="1.0" encoding="UTF-8"?>
<svg version="1.1" xmlns="http://www.w3.org/2000/svg" width="368" height="502">
<path d="M0 0 C18.17609318 16.14697612 35.51754287 36.7027286 37.27734375 61.984375 C37.59178176 71.09670344 37.43479409 79.55330778 31.0625 86.625 C15.11002008 101.03908563 -7.07625069 103.88215561 -27.796875 103.3125 C-42.54514805 102.49086919 -56.05141415 96.73017416 -67.35546875 87.3203125 C-68.77847073 85.89565844 -68.77847073 85.89565844 -70 86 C-71.53184308 93.19966248 -70.98174435 98.65607162 -67.17578125 105.078125 C-61.00811498 114.16278527 -54.13088049 122.67410445 -46.625 130.6875 C-23.03219353 156.75075741 -10.69428515 192.05596838 -12.12817383 227.1015625 C-12.4122618 232.1115307 -12.95619375 236.92459973 -14.0234375 241.82421875 C-18.41695881 263.03668881 -13.69608898 285.2958546 -2.75 303.75 C3.21297783 312.69446674 10.88338686 319.07424306 21.453125 321.58203125 C33.78230177 323.60537774 46.68745596 321.11001572 57 314 C65.51014192 307.83475787 71.25195089 297.31962324 73 287 C73.94619453 275.15437235 70.94217423 265.62037343 64 256 C59.60649795 251.60649795 54.95536 249.95349519 48.8125 249.625 C40.78475925 249.84160009 33.15480785 252.86928813 27.3671875 258.44921875 C22.62354244 263.82986757 21.84941085 270.03525181 22 277 C22.74587067 281.82152112 23.64475218 285.72004372 27.25 289.125 C31.79561577 290.57133229 35.3665116 290.74249473 39.75 288.75 C43.38433448 285.92329541 44.7541026 284.12702974 45.75 279.5625 C45.97298893 276.3849078 45.83125021 274.04791744 45 271 C43.02 270.34 41.04 269.68 39 269 C39 268.01 39 267.02 39 266 C46.81818182 267.09090909 46.81818182 267.09090909 50 269 C50.8125 271.625 50.8125 271.625 51 275 C51.165 276.155 51.33 277.31 51.5 278.5 C51.5 285.08913174 47.10318223 291.36360779 44 297 C41.25008168 297.16811728 38.50007888 297.3345481 35.75 297.5 C34.97269531 297.54769531 34.19539063 297.59539062 33.39453125 297.64453125 C32.64042969 297.68964844 31.88632812 297.73476563 31.109375 297.78125 C30.41811523 297.82314453 29.72685547 297.86503906 29.01464844 297.90820312 C27.01161035 297.99947098 25.0051163 298 23 298 C21.21875 296.20703125 21.21875 296.20703125 19.5 293.8125 C18.9328125 293.03519531 18.365625 292.25789063 17.78125 291.45703125 C17.1934375 290.64621094 16.605625 289.83539063 16 289 C15.27039063 288.29875 14.54078125 287.5975 13.7890625 286.875 C11.02116981 282.42703271 11.59013146 278.29817728 11.875 273.1875 C11.89046875 272.22779297 11.9059375 271.26808594 11.921875 270.27929688 C12.21020819 264.06741279 13.42752318 260.41591999 17.57446289 255.74121094 C19.08824693 253.89221148 19.77405004 252.30392237 20.5625 250.0625 C21.2740625 248.5465625 21.2740625 248.5465625 22 247 C22.77472656 246.8453125 23.54945313 246.690625 24.34765625 246.53125 C27.57871245 245.88408705 28.52907621 244.69670676 30.875 242.4375 C36.48574138 238.32295632 41.90007257 238.25164285 48.625 238.1875 C50.1097583 238.15257446 50.1097583 238.15257446 51.62451172 238.11694336 C57.95026016 238.227689 61.56629032 239.3641631 66.28369141 243.63671875 C68.14372799 245.32039829 68.14372799 245.32039829 71.75 245.8125 C75 247 75 247 76.1484375 248.97265625 C76.80151177 250.57921895 77.42781154 252.19691704 78.02734375 253.82421875 C79.34285476 256.7669482 81.50071553 258.04110136 84 260 C84.58203125 262.734375 84.58203125 262.734375 85 266 C85.33291567 268.02090218 85.66624797 270.04173577 86 272.0625 C86.165 273.06410156 86.33 274.06570313 86.5 275.09765625 C86.94462428 277.94383548 86.94462428 277.94383548 87.66015625 280.45703125 C88.24662178 284.84541123 86.65703126 288.82885761 85.49609375 293.0390625 C84.62314704 296.17633273 84.62314704 296.17633273 87 299 C86.85922506 303.22324831 83.90068719 305.24080974 81 308 C78.73529772 310.88020391 78.73529772 310.88020391 78.6875 314.4375 C78 318 78 318 75.9375 320.125 C74.34139204 321.14379231 72.73789568 322.15262453 71.1015625 323.10546875 C67.33807941 325.3332777 64.70402356 327.1773583 62.125 330.75 C60.33732384 333.01374209 59.54105466 333.8848431 56.6875 334.4921875 C54.96722412 334.58134814 53.24552551 334.64612852 51.5234375 334.6875 C48.6019172 335.04929818 47.13806506 335.94145988 44.75 337.625 C41.30518223 340.01990319 41.30518223 340.01990319 38.125 339.8125 C37.09375 339.544375 36.0625 339.27625 35 339 C33.29398088 338.89133636 31.58435933 338.83249251 29.875 338.8125 C29.04742187 338.79832031 28.21984375 338.78414063 27.3671875 338.76953125 C24.80226022 339.01925189 23.25364654 339.80409031 21 341 C17.76127669 340.83391163 16.35178866 340.31980787 13.9375 338.125 C10.75156382 335.82028021 8.99396456 335.54447869 5.1875 334.875 C-1.27269217 333.46406232 -3.5917434 330.57704577 -7.26171875 325.2734375 C-8.91346088 322.72931054 -8.91346088 322.72931054 -12.1875 321.625 C-16.43251877 319.17232249 -17.15300363 315.41321303 -18.7265625 310.91015625 C-19.81770072 307.92614061 -19.81770072 307.92614061 -22.078125 305.953125 C-24.4587829 303.53375722 -24.68260171 302.01489989 -25.125 298.6875 C-25.78357423 294.3009252 -26.6834437 290.23178812 -28 286 C-30.03811544 287.80638362 -30.03811544 287.80638362 -31.45703125 289.36328125 C-33 291 -33 291 -34.94921875 292.66796875 C-37.32569592 295.1640171 -38.2827831 296.59321972 -39 300 C-37.65157509 305.89727807 -34.62830603 311.3233606 -32.01953125 316.74267578 C-26.20053186 329.62640862 -24.36414279 349.08476445 -28.09375 362.90625 C-30.13200556 367.61532318 -33.11955878 371.77679671 -36 376 C-36.33 376.66 -36.66 377.32 -37 378 C-36.35973877 377.98428955 -35.71947754 377.9685791 -35.05981445 377.95239258 C-32.14413369 377.88982885 -29.22859445 377.85094192 -26.3125 377.8125 C-24.80139648 377.77479492 -24.80139648 377.77479492 -23.25976562 377.73632812 C-13.86064869 377.64326756 -13.86064869 377.64326756 -10 381 C-8.39872926 384.20254147 -8.59298393 386.45314564 -9 390 C-10.34310741 391.98366633 -11.80989978 393.62161355 -13.4921875 395.32421875 C-15.72327461 397.80384665 -17.0134728 399.76050218 -16.9765625 403.15625 C-16.80253906 404.31640625 -16.80253906 404.31640625 -16.625 405.5 C-16.13896484 409.48904468 -15.83769475 413.41815709 -15.75 417.4375 C-15.72421875 418.42621094 -15.6984375 419.41492188 -15.671875 420.43359375 C-16 423 -16 423 -17.390625 424.84765625 C-19 426 -19 426 -21 426 C-20.88140625 425.40574219 -20.7628125 424.81148438 -20.640625 424.19921875 C-19.81864133 418.91386375 -19.9658799 415.402072 -22.0625 410.4375 C-23.93715262 405.81596054 -24.33557792 402.92222364 -22.91796875 398.13671875 C-21.61230282 395.09757294 -19.93908246 392.41732392 -18.0234375 389.7265625 C-16.74504546 387.90440218 -16.74504546 387.90440218 -17 385 C-24.8005757 384.8850979 -32.3766446 385.11535977 -40.125 386.07421875 C-43.66956396 385.98271506 -45.28883979 385.27059668 -48 383 C-49.046875 380.6640625 -49.046875 380.6640625 -49 378 C-47.453125 375.2734375 -47.453125 375.2734375 -45.25 372.375 C-38.4920743 362.73432278 -36.57569613 353.17550419 -38.5859375 341.63671875 C-41.00630712 331.1225443 -45.67180275 322.30157511 -51 313 C-55.16741523 314.39161902 -57.79416663 316.33207679 -61 319.3125 C-61.87527344 320.12460937 -62.75054687 320.93671875 -63.65234375 321.7734375 C-66.15258228 324.14471198 -68.62449168 326.50267074 -71 329 C-71.67675781 329.6703125 -72.35351562 330.340625 -73.05078125 331.03125 C-82.7878019 341.1119302 -88.87769022 353.118682 -89.3125 367.25 C-89.03542895 381.36432528 -83.98160658 393.63319524 -74.3515625 403.98828125 C-65.21642774 411.80322211 -55.58371971 413.55018951 -44 413 C-39.37130103 412.53788766 -36.57822024 411.55308023 -33.125 408.25 C-28.55438626 401.25964958 -28.94205541 396.03466024 -30 388 C-27.62033344 388.95186662 -26.23710026 389.6752445 -24.7109375 391.765625 C-22.86993403 397.55163591 -25.28298577 405.00561608 -27.75 410.375 C-31.127724 416.28294634 -34.50914635 419.82836902 -41.125 421.875 C-53.85319718 424.7552289 -63.84534395 422.56156871 -75.125 416.3125 C-84.09561536 410.53961188 -89.45661241 403.82923854 -94.4375 394.5 C-94.86289063 393.70505127 -95.28828125 392.91010254 -95.7265625 392.09106445 C-100.51133158 382.68701892 -101.34424149 374.15584374 -101.3125 363.6875 C-101.32861328 362.63626953 -101.34472656 361.58503906 -101.36132812 360.50195312 C-101.36776075 350.0360762 -99.26784137 340.34135135 -94.5 331 C-94.15670654 330.32557861 -93.81341309 329.65115723 -93.4597168 328.95629883 C-86.67689928 316.29194024 -74.83628554 306.06599062 -63.109375 298.015625 C-60.75312353 296.19096024 -60.75312353 296.19096024 -60.6953125 293.484375 C-60.83710938 292.58203125 -60.97890625 291.6796875 -61.125 290.75 C-61.25132812 289.85796875 -61.37765625 288.9659375 -61.5078125 288.046875 C-61.67023438 287.04140625 -61.83265625 286.0359375 -62 285 C-62.82693649 279.26460479 -63.15447256 273.72885778 -63.125 267.9375 C-63.12886719 267.17373047 -63.13273438 266.40996094 -63.13671875 265.62304688 C-63.13055558 262.02067656 -62.99460697 258.56507868 -62.4296875 255.00390625 C-62.28789062 254.01261719 -62.14609375 253.02132813 -62 252 C-62.33 251.67 -62.66 251.34 -63 251 C-63.16242188 252.06154297 -63.16242188 252.06154297 -63.328125 253.14453125 C-65.30775893 261.55797546 -70.7735019 268.81848908 -75.93798828 275.58032227 C-81.74485422 283.19666791 -85.16186956 289.01189303 -87.15625 298.4453125 C-89.88911805 309.95878438 -97.32549473 319.82845809 -104.02490234 329.36572266 C-111.99020594 340.88142669 -115.51603811 351.72978222 -113.0625 365.75 C-111.20993849 373.44785833 -107.71534534 380.00963829 -104.05078125 386.95898438 C-96.52906021 401.56901874 -88.41999225 418.91298727 -92.66015625 435.59765625 C-96.57932259 445.48888557 -105.59033588 452.7245149 -113 460 C-105.29798334 459.53563725 -97.90786329 458.2627802 -90.3828125 456.62109375 C-87.45033108 456.08268203 -84.96096187 455.70814892 -82 456 C-80 458 -80 458 -79.6875 460.5625 C-80.02678907 464.29467982 -81.0685097 467.24229211 -82.33203125 470.7421875 C-83.28194934 473.95302174 -83.21228099 476.67426452 -83 480 C-79.95613276 480.08226668 -77.92824652 479.97608217 -75 479 C-74.67 478.01 -74.34 477.02 -74 476 C-73.34 476 -72.68 476 -72 476 C-72.14033111 477.97956441 -72.2874123 479.95865141 -72.4375 481.9375 C-72.51871094 483.03964844 -72.59992188 484.14179688 -72.68359375 485.27734375 C-73 488 -73 488 -74 489 C-76.35313555 489.07271741 -78.70833668 489.08370868 -81.0625 489.0625 C-82.35285156 489.05347656 -83.64320313 489.04445313 -84.97265625 489.03515625 C-86.47119141 489.01775391 -86.47119141 489.01775391 -88 489 C-88.0825 487.948125 -88.165 486.89625 -88.25 485.8125 C-89.06221675 481.68373153 -90.36956235 480.15652518 -93 477 C-92 474 -92 474 -89 472 C-88.42251197 470.03638136 -88.42251197 470.03638136 -88.3125 467.875 C-88.1578125 465.956875 -88.1578125 465.956875 -88 464 C-88.680625 464.474375 -89.36125 464.94875 -90.0625 465.4375 C-93 467 -93 467 -96.6875 467.5 C-97.780625 467.665 -98.87375 467.83 -100 468 C-100.66 468.99 -101.32 469.98 -102 471 C-104.05859375 471.625 -104.05859375 471.625 -106.4375 472 C-110.08384005 472.5766864 -111.47713982 473.35666616 -114 476 C-118.46450523 476.49605614 -121.8444208 475.59149842 -126 474 C-126.86625 473.7525 -127.7325 473.505 -128.625 473.25 C-132.01169631 471.46752826 -133.2794597 469.37490598 -135 466 C-134.75 463.125 -134.75 463.125 -134 461 C-133.071875 460.938125 -133.071875 460.938125 -132.125 460.875 C-131.073125 460.441875 -131.073125 460.441875 -130 460 C-129.690625 459.030625 -129.38125 458.06125 -129.0625 457.0625 C-128.711875 456.051875 -128.36125 455.04125 -128 454 C-125.625 452.875 -125.625 452.875 -123 452 C-120.48401772 449.91532897 -119.18990365 448.51906997 -118.0625 445.4375 C-116.67919265 442.26403019 -114.96871305 441.66537561 -112 440 C-109.45492876 437.45492876 -109.02315801 436.40140544 -108.8125 432.75 C-108.874375 431.8425 -108.93625 430.935 -109 430 C-107.68 429.67 -106.36 429.34 -105 429 C-105 425.37 -105 421.74 -105 418 C-105.66 418 -106.32 418 -107 418 C-106.98259766 417.07767578 -106.98259766 417.07767578 -106.96484375 416.13671875 C-106.95582031 415.32847656 -106.94679687 414.52023437 -106.9375 413.6875 C-106.92589844 412.88699219 -106.91429687 412.08648437 -106.90234375 411.26171875 C-106.90342145 408.83138666 -106.90342145 408.83138666 -108 406 C-109.65 405.67 -111.3 405.34 -113 405 C-112.83951172 403.48986328 -112.83951172 403.48986328 -112.67578125 401.94921875 C-113.09613706 396.82898111 -115.00030847 394.66288389 -118.1875 390.8125 C-128.24117976 377.96042295 -131.49731643 365.13475957 -130 349 C-127.33997781 333.99747487 -118.04829219 320.23738355 -109.78515625 307.73046875 C-108.03921761 305.17437875 -108.03921761 305.17437875 -107 303 C-107.61488281 303.49371094 -108.22976562 303.98742187 -108.86328125 304.49609375 C-109.67152344 305.13675781 -110.47976562 305.77742188 -111.3125 306.4375 C-112.11300781 307.07558594 -112.91351563 307.71367187 -113.73828125 308.37109375 C-116 310 -116 310 -119 311 C-119.70418442 312.31390507 -120.36502934 313.65128413 -121 315 C-122.18324305 316.45822206 -123.39483179 317.89364065 -124.625 319.3125 C-135.40189948 332.67116125 -144.18510855 351.51360239 -143 369 C-142.17196072 372.09026425 -140.83136018 374.39343338 -139 377 C-138.443125 377.80050781 -137.88625 378.60101563 -137.3125 379.42578125 C-136.10880907 381.13533367 -134.89790548 382.83983142 -133.6796875 384.5390625 C-129.19182493 391.11430301 -126.86225432 397.03930815 -126.8125 405 C-126.79832031 406.03125 -126.78414062 407.0625 -126.76953125 408.125 C-126.99723053 410.96545203 -127.53495939 412.59107948 -129 415 C-130.54422858 411.02912652 -131.31690547 407.1929244 -131.9375 403 C-133.13715198 395.54370151 -134.91576721 391.60428427 -141 387 C-141 386.34 -141 385.68 -141 385 C-141.66 385 -142.32 385 -143 385 C-142.67 385.639375 -142.34 386.27875 -142 386.9375 C-140.83823703 390.49539911 -140.88619063 393.40257139 -141.02734375 397.109375 C-141.21942703 399.01284202 -141.21942703 399.01284202 -140 400 C-139.84550053 403.24448897 -140.03202623 406.22018036 -140.5 409.4375 C-141.09641141 412.91710022 -141.09641141 412.91710022 -140.875 416.125 C-141.03141481 420.97385903 -141.40828084 430.40828084 -145 434 C-145.2039085 435.95169561 -145.3138543 437.91363424 -145.375 439.875 C-145.42398438 440.94492187 -145.47296875 442.01484375 -145.5234375 443.1171875 C-145.28939012 446.18399258 -145.28939012 446.18399258 -142.671875 447.89453125 C-139.2983812 449.29028965 -137.47991066 448.98345301 -134 448 C-130.30017452 445.53344968 -130.08136405 443.85115665 -128.84375 439.77734375 C-128.5653125 439.19082031 -128.286875 438.60429687 -128 438 C-127.01 437.67 -126.02 437.34 -125 437 C-124.62502254 441.68721819 -124.51540503 445.04875802 -126.6875 449.3125 C-132.21647266 455.73806282 -132.21647266 455.73806282 -136.3671875 456.34765625 C-140.21609528 456.4789988 -143.30305406 456.25208683 -146.9375 454.9375 C-150.67555208 451.42599653 -151.8703478 447.30488665 -152.36328125 442.34375 C-152.33814453 440.44109375 -152.33814453 440.44109375 -152.3125 438.5 C-152.29993164 437.46613159 -152.29993164 437.46613159 -152.28710938 436.41137695 C-152.15131932 430.45494599 -151.4116436 424.67165475 -150.4375 418.79296875 C-149.40111 409.80783762 -150.15094127 401.1148899 -151.375 392.1875 C-151.50132812 391.19041016 -151.62765625 390.19332031 -151.7578125 389.16601562 C-152.414188 384.23335375 -153.17815014 379.66551985 -155 375 C-155.66 375 -156.32 375 -157 375 C-156.01 376.485 -156.01 376.485 -155 378 C-154.83984375 380.1640625 -154.83984375 380.1640625 -154.9375 382.625 C-155.02403566 386.11187805 -154.87786931 389.36177611 -154.375 392.8125 C-153.90048644 396.52410607 -154.46060067 398.55898974 -156 402 C-155.9175 403.093125 -155.835 404.18625 -155.75 405.3125 C-156.06390062 409.94253409 -157.7297539 411.54335072 -160.60546875 415.01171875 C-162.60248262 417.85900183 -162.7325869 420.59048295 -163 424 C-165.35828755 427.53743133 -167.16680726 428.1873241 -170.9296875 429.83984375 C-173.1355957 430.92297158 -173.1355957 430.92297158 -174.78344727 433.05078125 C-178.83386438 436.61268567 -183.93874893 435.33628822 -189.0625 435.0625 C-190.16400391 435.03865234 -191.26550781 435.01480469 -192.40039062 434.99023438 C-193.45548828 434.94318359 -194.51058594 434.89613281 -195.59765625 434.84765625 C-196.56195557 434.80648682 -197.52625488 434.76531738 -198.51977539 434.72290039 C-201 434 -201 434 -202.68139648 431.62280273 C-203.11653564 430.75727783 -203.5516748 429.89175293 -204 429 C-204.825 428.071875 -205.65 427.14375 -206.5 426.1875 C-209.30168595 422.90188648 -211.15630207 419.25292632 -212 415 C-211.5703125 412.7578125 -211.5703125 412.7578125 -211 411 C-208.68462698 413.12961244 -207.28332024 415.17108359 -205.8125 417.9375 C-203.04329195 422.42609692 -200.05830141 424.54437369 -195 426 C-188.53719932 427.08466585 -183.35966884 425.72368792 -178 422 C-171.08694184 415.08694184 -168.09673954 405.37389489 -167.5 395.8125 C-167.76380368 382.85314428 -171.94373068 369.39436019 -180.1640625 359.39453125 C-185.90257207 351.91004962 -186.97247453 343.15849434 -186 334 C-184.3103755 323.10766343 -177.47496105 314.4192852 -168.95703125 307.73046875 C-163.99097712 303.33932707 -161.13568498 298.90987547 -158.9375 292.6875 C-158.68782471 292.00034912 -158.43814941 291.31319824 -158.1809082 290.60522461 C-154.53268023 280.22379235 -151.49156024 269.02804704 -151 258 C-150.96003906 257.25234375 -150.92007813 256.5046875 -150.87890625 255.734375 C-150.36044465 236.8257754 -156.67017814 220.74196488 -165.59765625 204.5078125 C-172 192.74231619 -172 192.74231619 -172 189 C-182.29106013 196.35979505 -189.15988677 204.58849655 -193.6015625 216.4921875 C-194.09670363 219.60866402 -193.32413036 221.18270136 -192 224 C-191.63712818 227.81015416 -191.80423213 228.7063482 -194 232 C-194.07905064 234.33199388 -194.08798769 236.66832622 -194 239 C-193.01 239.33 -192.02 239.66 -191 240 C-190.61781233 241.65614657 -190.28604898 243.32457024 -190 245 C-190.33 245.33 -190.66 245.66 -191 246 C-190.80642534 251.04037134 -190.80642534 251.04037134 -187.9375 254.9375 C-186 257 -186 257 -185.9375 260.875 C-185.97617188 261.56464844 -186.01484375 262.25429688 -186.0546875 262.96484375 C-185.96266564 266.3893714 -184.42473464 269.57526536 -182 272 C-181.79153855 275.54384464 -181.75386649 278.33851618 -183 281.6875 C-184.04414083 285.14621652 -183.91581026 287.30709257 -183.6875 290.875 C-183.58950261 295.5558165 -183.99553511 297.72543158 -187.25 301.125 C-188.21873047 302.04732422 -188.21873047 302.04732422 -189.20703125 302.98828125 C-191.29723871 305.33350313 -191.98814658 307.33556823 -192.9375 310.3125 C-194.493987 314.71475293 -194.493987 314.71475293 -196.80859375 316.01953125 C-198.18540714 316.42294538 -199.57000027 316.80070231 -200.9609375 317.15234375 C-204.84876706 318.76854876 -206.82965466 322.53895686 -209 326 C-210.051875 325.79375 -211.10375 325.5875 -212.1875 325.375 C-218.14003118 324.64025107 -224.25692051 325.32113682 -230 327 C-232.20357302 329.00505034 -232.20357302 329.00505034 -234 331 C-236.5625 331 -236.5625 331 -239 330 C-239.4125 329.38125 -239.825 328.7625 -240.25 328.125 C-243.03960189 324.73762627 -246.80137067 323.92062969 -251 323 C-252.27875 323 -253.5575 323 -254.875 323 C-258 323 -258 323 -259.8125 321.8125 C-261 320 -261 320 -261.8125 317.8125 C-264.11513501 312.35889076 -267.26416248 308.02864446 -272.375 305 C-273.24125 304.67 -274.1075 304.34 -275 304 C-274.938125 302.9275 -274.87625 301.855 -274.8125 300.75 C-274.80041891 293.99667238 -276.24022435 286.63966348 -280 281 C-280.29086956 277.72771743 -280.12511292 275.3669979 -279.0625 272.25 C-278.08182693 269.25029412 -277.87682363 267.16733033 -277.75 264.0625 C-277.34784137 259.25095923 -275.95871707 257.11450074 -272.56640625 253.78515625 C-270.77708438 251.74595402 -270.14763881 249.89796216 -269.1875 247.375 C-266.96815236 243.05466993 -264.19406466 241.97719899 -259.77661133 240.54541016 C-252.64431929 238.50123169 -247.86379203 237.35159661 -241.125 240.9375 C-238.56197143 242.26931671 -236.3524605 243.20014857 -233.5625 244.0625 C-232.716875 244.371875 -231.87125 244.68125 -231 245 C-230 248 -230 248 -229.59375 249.84375 C-228.84691215 252.55595061 -227.70140458 254.95749263 -226.5 257.5 C-223.08839433 264.71990968 -222.09700087 270.98588276 -223 279 C-224.69737341 283.60193049 -226.97700704 286.29669234 -231 289.0625 C-234.20525553 290.06414235 -235.83930653 290.0225773 -239 289 C-236.94741176 286.94741176 -234.89466913 284.89767859 -232.8125 282.875 C-230.51617343 280.49948976 -230.05522604 279.42339967 -229.625 276.125 C-229.7638683 269.48709528 -232.66213715 262.62394931 -237.04296875 257.70703125 C-242.02302062 253.30083869 -242.02302062 253.30083869 -248.3125 251.75 C-252.20571666 252.01394689 -253.8454994 252.83691387 -257 255 C-257.66 255 -258.32 255 -259 255 C-259.67561748 256.6630584 -260.33933281 258.33094605 -261 260 C-261.804375 261.6396875 -261.804375 261.6396875 -262.625 263.3125 C-265.49895314 271.0795426 -265.2438466 281.6015548 -262.5625 289.375 C-258.23148279 298.35504618 -251.73504383 304.39832264 -242.578125 308.16015625 C-232.88948205 311.31630509 -225.13220149 310.27196542 -216 306 C-209.74182296 302.30557195 -205.62832696 295.90825818 -203.6875 289 C-201.24284748 276.87076251 -205.49204195 265.85245176 -209.81640625 254.6171875 C-215.53915179 237.12787275 -215.23961386 216.86375743 -207.6796875 200.06640625 C-202.58743224 190.03494165 -195.3238539 182.19791737 -187.33984375 174.3984375 C-182.5995735 169.53946265 -178.08125149 164.67286876 -177.60546875 157.73828125 C-175.82099012 134.3701087 -169.01806008 116.0903147 -156.6953125 96.3359375 C-148.75926301 83.60600247 -143.46093808 70.68676667 -138.41015625 56.5625 C-136.71510267 51.85334278 -134.85853116 47.27656857 -132.80981445 42.71240234 C-129.76623705 35.9162188 -128.49796368 30.39419848 -128.9296875 22.8671875 C-129.08775611 16.42150093 -126.55385124 10.4011359 -122.28955078 5.60107422 C-117.56795573 2.29928062 -111.47153579 2.02953842 -105.87322998 1.30752563 C-101.82534158 0.782996 -97.79269205 0.15849994 -93.7578125 -0.45703125 C-92.9399527 -0.57955765 -92.1220929 -0.70208405 -91.27944946 -0.82832336 C-83.21525729 -2.0619786 -75.3063813 -3.79182372 -67.375 -5.6875 C-66.16908203 -5.97302734 -64.96316406 -6.25855469 -63.72070312 -6.55273438 C-58.63299406 -7.78358524 -53.60070757 -9.09135313 -48.6015625 -10.64453125 C-31.32044071 -15.91054256 -13.75010008 -11.25287372 0 0 Z M-83.3125 43.3125 C-85.27688633 46.44096713 -85.92604832 48.30241609 -86 52 C-84.38764222 57.19537508 -82.52251212 59.98499192 -78 63 C-74.50452678 64.74773661 -70.71861548 63.8363668 -67 63 C-63.56384889 60.87982166 -61.19282117 58.90377836 -60 55 C-59.5416009 50.26320934 -59.52252535 47.97331371 -61.625 43.6875 C-64.81105662 40.08222541 -67.72504582 38.34124313 -72.5 37.625 C-77.031392 38.3047088 -80.09198822 40.09198822 -83.3125 43.3125 Z M-110 150 C-109.52021301 156.87087747 -108.38503716 163.21134729 -106.4375 169.8125 C-106.17718994 170.71339355 -105.91687988 171.61428711 -105.64868164 172.54248047 C-103.71893634 179.03431268 -101.41898147 185.32644027 -98.9375 191.625 C-91.53251435 210.55871625 -88.21452719 230.01204925 -85 250 C-84.34 250 -83.68 250 -83 250 C-82.18025737 247.96123051 -81.3695193 245.91883925 -80.5625 243.875 C-80.11003906 242.73804688 -79.65757812 241.60109375 -79.19140625 240.4296875 C-73.07933299 222.83493234 -78.73428839 203.68551374 -86.41723633 187.49829102 C-89.91858685 180.62135343 -94.37927973 174.38668244 -98.98803711 168.21313477 C-103.23260986 162.46033216 -106.27148284 156.60489865 -109 150 C-109.33 150 -109.66 150 -110 150 Z M-151 164 C-153.39321046 166.46573199 -154.8832576 168.1157099 -155.33984375 171.57421875 C-154.87064597 176.30394805 -153.25411896 180.29413397 -151.5 184.6875 C-151.14196289 185.60869629 -150.78392578 186.52989258 -150.41503906 187.47900391 C-148.30408459 192.86516417 -146.07603564 198.19210489 -143.77758789 203.50048828 C-134.08109977 225.90677088 -130.73772733 247.36355555 -138 271 C-138.53484012 272.79007029 -139.0686373 274.58045243 -139.6015625 276.37109375 C-140.41359966 279.09317101 -141.23082687 281.8129017 -142.06884766 284.52709961 C-142.44468994 285.74731812 -142.44468994 285.74731812 -142.828125 286.9921875 C-143.0540332 287.71776855 -143.27994141 288.44334961 -143.51269531 289.19091797 C-144.08669832 291.00960028 -144.08669832 291.00960028 -144 293 C-137.45037312 290.74481712 -132.39141947 286.20688656 -127 282 C-126.31035156 281.49210937 -125.62070313 280.98421875 -124.91015625 280.4609375 C-114.9432029 272.73146348 -109.38896214 259.6145659 -107.25 247.44921875 C-106.45582867 239.66882153 -108.27261715 233.81022911 -112.83984375 227.4296875 C-116.52550337 222.94100707 -120.26718297 218.66992796 -124.46289062 214.65869141 C-139.25872571 200.4973664 -145.8105048 183.75382096 -150 164 C-150.33 164 -150.66 164 -151 164 Z M-52 173 C-51.5875 174.216875 -51.175 175.43375 -50.75 176.6875 C-50.16374817 178.45736928 -49.58075804 180.22832041 -49 182 C-48.66355469 183.02480469 -48.32710937 184.04960937 -47.98046875 185.10546875 C-47.63628906 186.18441406 -47.29210937 187.26335937 -46.9375 188.375 C-46.61652344 189.37273437 -46.29554688 190.37046875 -45.96484375 191.3984375 C-43.55527439 200.39286239 -42.6416281 209.01108967 -42.6875 218.3125 C-42.68951416 219.4375293 -42.69152832 220.56255859 -42.69360352 221.72167969 C-42.81269907 231.8569256 -44.09862285 241.64935145 -45.65820312 251.64501953 C-46.97295122 260.7036339 -47.16786712 269.8605681 -47 279 C-46.01 279 -45.02 279 -44 279 C-30.31994848 251.69995364 -29.01104276 227.31131929 -38.47265625 198.125 C-41.55206061 189.37807002 -45.98001101 180.78246814 -51 173 C-51.33 173 -51.66 173 -52 173 Z M-132 302 C-134.45324779 303.20691301 -136.73227838 304.45981801 -139.0625 305.875 C-139.73700195 306.28339111 -140.41150391 306.69178223 -141.10644531 307.11254883 C-148.29122282 311.60432576 -156.52961482 317.53010797 -159 326 C-158.82811826 328.36951251 -158.51340595 330.62281631 -158.03125 332.94921875 C-158 335 -158 335 -159.453125 336.55859375 C-159.96359375 337.03425781 -160.4740625 337.50992188 -161 338 C-161.2489288 341.36053884 -161.1603296 344.26960959 -160.4375 347.5625 C-160 350 -160 350 -160.75 353 C-161.35975226 356.21124264 -161.35975226 356.21124264 -158.75 358.875 C-156.18358411 361.30572375 -156.18358411 361.30572375 -153 361 C-152.89977539 360.39639648 -152.79955078 359.79279297 -152.69628906 359.17089844 C-149.07785542 337.64901307 -143.75402257 320.23837495 -130 303 C-130.66 302.67 -131.32 302.34 -132 302 Z " fill="#FFFFFF" transform="translate(280,13)"/>
</svg>
