<svg width="372" height="123" viewBox="0 0 372 123" fill="none" xmlns="http://www.w3.org/2000/svg">
<path d="M371.53 81.9065C371.181 80.7465 370.288 79.6775 368.939 78.8715C367.503 78.0135 366.038 77.2025 364.565 76.4095C358.684 73.2425 352.596 70.4835 346.496 67.7715C334.23 62.3185 321.947 56.8665 309.363 52.1795C305.843 50.8685 302.302 49.6155 298.725 48.4675C296.901 47.8815 295.072 47.3235 293.224 46.8205C292.634 46.6595 292.035 46.4945 291.433 46.3355C290.952 46.1765 290.47 46.0185 289.978 45.8825C288.357 45.4315 286.719 45.0435 285.087 44.6375C281.771 43.8135 278.451 43.0075 275.141 42.1605C272.038 41.3665 268.947 40.4715 266.04 39.1075C263.531 37.9295 261.158 36.4775 258.923 34.8405C254.302 31.4575 250.297 27.2865 246.541 22.9845C242.547 18.4105 238.896 13.5095 234.548 9.25651C232.146 6.90751 229.51 4.76351 226.586 3.09551C225.135 2.26851 223.605 1.54251 222.026 0.994512C220.441 0.443512 218.819 0.168515 217.154 0.00351495C216.603 -0.051485 216.341 0.550513 216.467 1.00051C216.432 1.09851 216.407 1.20251 216.393 1.31951C216.356 1.63351 216.318 1.94851 216.281 2.26251C216.247 2.56051 216.207 2.87851 216.208 3.17951C216.117 3.65051 216.082 4.13651 216.041 4.60751C215.951 5.64251 215.862 6.67751 215.774 7.71251C215.435 11.6995 215.108 15.6875 214.794 19.6765C214.64 21.6385 214.498 23.6005 214.339 25.5615C214.19 27.3815 213.98 29.2095 213.381 30.9445C212.277 34.1455 209.621 36.4175 207.131 38.5575C205.473 39.9825 203.814 41.4055 202.156 42.8315C201.408 43.4745 200.652 44.0915 199.846 44.6615C199.575 44.8535 199.296 45.0375 199.019 45.2235C194.954 46.1605 190.891 47.1005 186.828 48.0455C178.575 49.9655 170.339 51.9335 162.116 53.9775C159.8 54.5535 157.483 55.1285 155.172 55.7245C154.191 55.9775 153.198 56.2265 152.211 56.4995C149.973 56.9375 147.731 57.3505 145.478 57.6945C142.531 58.1455 139.558 58.4505 136.577 58.5195C135.092 58.5535 133.613 58.4745 132.13 58.4595C131.58 58.4535 131.035 58.4155 130.491 58.3705C129.099 57.9585 127.763 57.3815 126.454 56.7575C123.28 55.2455 120.116 53.7365 116.863 52.3965C116.045 52.0595 115.224 51.7315 114.4 51.4105C113.574 51.0895 112.708 50.6565 111.834 51.0755C110.409 51.7595 110.33 53.5905 110.519 54.9455C110.723 56.4015 111.425 57.9935 110.945 59.4575C110.495 60.8305 109.205 61.8635 108.198 62.8325C106.983 64.0025 105.735 65.1555 104.336 66.1045C103.622 66.5885 102.869 67.0265 102.084 67.3845C101.589 67.6105 101.087 67.8155 100.586 68.0245C100.005 68.0865 99.4261 68.1655 98.8441 68.2215C96.9971 68.3985 95.1461 68.5375 93.2941 68.6635C92.3871 68.7255 91.4781 68.7655 90.5711 68.8365C89.9751 68.8835 89.3491 68.8945 88.7361 68.9575C87.8211 67.7115 86.5521 66.6595 85.3451 65.8035C82.7061 63.9305 79.6891 62.5855 76.7781 61.1995C70.4441 58.1835 63.9771 55.4615 57.5361 52.6875C51.0851 49.9095 44.6481 47.0775 38.4091 43.8445C32.2331 40.6445 26.2411 37.0435 20.7401 32.7745C17.8741 30.5505 15.1201 28.1855 12.2571 25.9585C10.8361 24.8535 9.39313 23.7745 7.90113 22.7685C6.41513 21.7665 4.83513 20.6385 3.11713 20.0755C2.28613 19.8035 1.35613 19.7785 0.52613 20.0595C-0.20887 20.3085 -0.112868 21.2045 0.439132 21.4555C0.787132 22.2325 1.24613 22.9745 1.64913 23.7145C2.16513 24.6625 2.66713 25.6185 3.17413 26.5715C4.14213 28.3925 4.73813 30.3815 5.87613 32.1165C6.39213 32.9025 7.02813 33.6085 7.55813 34.3865C7.81913 34.7695 8.05613 35.1295 8.15913 35.5865C8.26213 36.0465 8.32613 36.5225 8.38813 36.9895C8.51113 37.9105 8.67913 38.8125 9.26013 39.5665C9.83813 40.3155 10.6781 40.6495 11.6061 40.6935C12.6781 40.7435 13.7911 40.5375 14.8571 40.4365C15.0921 40.4145 15.3291 40.3965 15.5651 40.3765C15.2241 42.2375 17.0671 44.3075 18.1371 45.6125C19.6771 47.4915 21.3001 49.3055 22.9441 51.0935C26.2641 54.7045 29.7551 58.1275 33.3811 61.4315C40.6301 68.0355 48.2481 74.2205 55.4761 80.8485C57.2541 82.4785 59.2121 84.0975 60.6801 86.0365C60.8541 86.4335 61.0351 86.8285 61.1321 87.2545C61.3181 88.0715 61.3261 88.9265 61.2571 89.7585C61.0971 91.6845 60.5631 93.5785 60.1541 95.4625C59.7501 97.3215 59.4081 99.2115 58.7961 101.017C58.1721 102.855 57.2971 104.611 56.5031 106.379C55.5911 108.411 54.6781 110.444 53.7661 112.476C53.5621 112.931 53.6351 113.469 54.0971 113.74C54.4051 113.92 54.8701 113.889 55.1601 113.652C56.7241 113.754 58.2441 113.263 59.7151 112.716C61.3871 112.095 63.0371 111.408 64.6101 110.565C67.5741 108.977 70.2391 106.86 72.6471 104.524C77.4651 99.8475 81.2691 94.2795 85.6801 89.2435C85.8711 89.0255 86.0731 88.8155 86.2661 88.5995C86.3631 88.5135 86.4561 88.4235 86.5531 88.3375C87.1461 87.8195 87.7081 87.3415 88.4621 87.0815C89.2591 86.8065 90.1241 86.7775 90.9571 86.7135C92.7771 86.5725 94.6171 86.5765 96.4331 86.4005C96.4801 86.3955 96.5271 86.3855 96.5741 86.3795C96.7521 86.4325 96.9281 86.4965 97.1081 86.6025C97.5261 86.8485 97.9281 87.1145 98.3001 87.4265C99.2371 88.2125 100.145 89.0365 101.067 89.8395C101.986 90.6395 102.929 91.4105 103.847 92.2115C104.292 92.5995 104.74 92.9835 105.169 93.3875C105.466 93.6675 105.778 94.0135 106.148 94.2055C106.26 94.5065 106.139 94.7925 105.991 95.0645C105.771 95.4685 105.533 95.8755 105.289 96.2655C104.752 97.1265 104.131 97.9415 103.567 98.7855C103.275 99.2215 102.989 99.6605 102.7 100.099C102.389 100.571 101.995 100.967 101.68 101.431C101.593 101.56 101.553 101.687 101.541 101.81C101.424 102.035 101.433 102.303 101.696 102.531C103.196 103.831 105.608 103.921 107.491 103.7C109.589 103.453 111.558 102.748 113.431 101.786C115.31 100.822 117.061 99.6305 118.822 98.4725C120.677 97.2525 122.518 95.8115 124.557 94.9125C125.618 94.4445 126.763 94.1875 127.899 93.9835C128.494 93.8765 129.068 93.7105 129.64 93.5315C130.188 93.5095 130.738 93.5115 131.291 93.5375C132.533 93.5945 133.774 93.6985 135.012 93.8155C135.802 93.8905 136.633 93.9385 137.446 94.0375C137.56 94.4685 137.876 94.8365 138.154 95.1725C138.241 95.2775 138.337 95.3735 138.427 95.4765C138.014 95.8155 137.707 96.3305 137.546 96.7975C137.243 97.6785 137.607 98.5445 138.344 99.0675C139.867 100.149 141.726 100.72 143.227 101.847C144.468 102.779 145.111 104.175 145.543 105.626C145.777 106.412 145.958 107.213 146.147 108.011C146.249 108.439 146.333 108.909 146.465 109.354C146.426 109.672 146.523 109.996 146.748 110.253C146.865 110.387 146.996 110.481 147.134 110.556C147.224 110.619 147.319 110.658 147.418 110.671C147.692 110.744 147.989 110.739 148.293 110.67C149.27 110.447 150.227 110.022 151.14 109.618C151.902 109.281 152.641 108.896 153.363 108.481C154.281 108.531 155.141 108.23 156.006 107.922C156.875 107.612 157.729 107.26 158.574 106.89C160.186 106.184 161.755 105.386 163.329 104.6C164.881 103.825 166.439 103.051 168.052 102.407C168.211 102.343 168.365 102.273 168.523 102.207C171.662 102.935 174.855 103.458 178.029 103.991C181.517 104.577 185.012 105.118 188.514 105.612C195.599 106.613 202.71 107.434 209.837 108.066C224.079 109.327 238.387 109.84 252.682 109.601C256.67 109.534 260.656 109.409 264.64 109.225C266.67 109.131 268.699 109.022 270.726 108.898C270.975 108.883 271.224 108.865 271.473 108.85C271.686 109.094 271.927 109.315 272.119 109.498C272.803 110.149 273.553 110.746 274.287 111.339C275.795 112.559 277.369 113.703 278.985 114.775C280.396 115.711 282.055 116.511 283.135 117.855C284.157 119.127 284.559 120.869 286.03 121.764C286.667 122.152 287.514 122.382 288.264 122.26C289.613 122.303 291.017 121.774 292.177 121.142C293.89 120.207 295.367 118.845 296.63 117.37C299.104 114.48 300.858 110.978 301.673 107.259C301.702 107.124 301.72 106.987 301.747 106.852C302.163 106.868 302.582 106.865 303 106.861C303.982 106.851 304.964 106.823 305.945 106.77C307.832 106.669 309.716 106.502 311.593 106.286C315.29 105.862 318.965 105.258 322.623 104.579C326.202 103.915 329.78 103.226 333.339 102.462C336.842 101.711 340.331 100.816 343.643 99.4285C345.033 98.8465 346.576 98.2485 347.616 97.1075C348.342 96.3115 348.78 95.2275 348.687 94.1635C350.47 94.0435 352.246 93.7805 353.991 93.4085C358.55 92.4355 363.111 90.7475 367.188 88.4805C368.201 87.9175 369.16 87.2385 370.009 86.4475C371.531 85.0315 371.978 83.3945 371.53 81.9065Z" fill="white"/>
</svg>
