<?xml version="1.0" encoding="UTF-8"?>
<svg version="1.1" xmlns="http://www.w3.org/2000/svg" width="285" height="553">
<path d="M0 0 C0.82886719 -0.01095703 1.65773438 -0.02191406 2.51171875 -0.03320312 C9.15745591 0.04603857 12.75670535 1.97048998 17.625 6.5703125 C26.07014708 16.10629108 30.6424357 25.13793577 33.5 37.5625 C33.78302979 38.78477295 33.78302979 38.78477295 34.07177734 40.03173828 C34.67330395 42.68367743 35.24829214 45.33988429 35.8125 48 C35.99635254 48.84030762 36.18020508 49.68061523 36.36962891 50.54638672 C37.37832043 55.55193112 37.4524698 59.47618171 36.5 64.5625 C36.81802943 66.23215451 37.14984951 67.89928518 37.5 69.5625 C37.335 70.366875 37.17 71.17125 37 72 C36.33138784 74.63079756 36.33138784 74.63079756 37 77.5625 C37.51429123 80.64824737 37.134838 82.54701949 36.5 85.5625 C36.70625 86.201875 36.9125 86.84125 37.125 87.5 C37.71457949 90.74268721 36.07394698 92.79235332 34.5 95.5625 C35.49 95.8925 36.48 96.2225 37.5 96.5625 C37.625 98.9375 37.625 98.9375 37.5 101.5625 C36.84 102.2225 36.18 102.8825 35.5 103.5625 C35.82228799 106.01188873 36.40939794 108.26351322 37.125 110.625 C37.56506291 112.89865837 37.20205558 114.37832708 36.5 116.5625 C37.82 116.5625 39.14 116.5625 40.5 116.5625 C40.68175781 115.94503906 40.86351562 115.32757813 41.05078125 114.69140625 C41.30214844 113.84449219 41.55351562 112.99757813 41.8125 112.125 C42.08578125 111.19816406 42.3590625 110.27132812 42.640625 109.31640625 C43.14379751 107.70396708 43.68101755 106.10019537 44.296875 104.52734375 C51.6594322 85.63261786 49.45442903 63.29301408 43.40234375 44.54296875 C41.6300489 38.68902514 41.25814159 33.27209601 41.1875 27.1875 C41.15849609 26.3625 41.12949219 25.5375 41.09960938 24.6875 C41.03858115 18.77245688 42.11567262 15.43062762 45.5 10.5625 C47.99074244 8.07175756 49.52559521 7.5561012 53 6.6875 C57.01026809 5.39848526 58.22429115 4.02157745 60.5 0.5625 C62.3125 0.625 62.3125 0.625 64.5 1.5625 C64.850625 2.573125 65.20125 3.58375 65.5625 4.625 C67.7329806 10.4566759 73.57384802 13.20191961 78.5 16.5625 C88.1993932 23.21634994 91.78034669 33.39695085 94.5 44.5625 C95.08789344 52.23105123 94.64140322 59.20142644 92.5 66.5625 C92.46164086 68.22872518 92.45443299 69.89645636 92.5 71.5625 C94.14954167 68.46029023 95.7939881 65.35540789 97.4375 62.25 C98.14036133 60.92838867 98.14036133 60.92838867 98.85742188 59.58007812 C99.30537109 58.73251953 99.75332031 57.88496094 100.21484375 57.01171875 C100.62855225 56.23143311 101.04226074 55.45114746 101.46850586 54.6472168 C103.54474743 50.45099744 103.61658209 47.12511269 103.59765625 42.48828125 C103.5962413 41.8044487 103.59482635 41.12061615 103.59336853 40.4160614 C103.58777876 38.23566278 103.57522822 36.05536749 103.5625 33.875 C103.55748367 32.39518378 103.552921 30.91536594 103.54882812 29.43554688 C103.53781271 25.81116443 103.52055512 22.1868423 103.5 18.5625 C102.84 19.2225 102.18 19.8825 101.5 20.5625 C96.94444444 20.00694444 96.94444444 20.00694444 95.5 18.5625 C95.06639652 15.50869262 95.03159037 12.61248542 95.5 9.5625 C97.625 6.9375 97.625 6.9375 100.5 5.5625 C105.56205089 5.5625 110.38334383 7.67732217 114.5 10.5625 C122.05054049 20.49742169 121.747602 34.96942506 120.19677734 46.89404297 C119.45957444 51.48634364 118.52559443 56.02668653 117.5 60.5625 C122.35389287 61.74513757 125.12145128 61.34841269 129.6875 59.375 C130.71230469 58.94832031 131.73710937 58.52164063 132.79296875 58.08203125 C136.21168726 56.16301032 137.78186215 54.15266238 139.375 50.625 C139.70934584 48.37965782 139.70934584 48.37965782 138 46.125 C136.5 43.5625 136.5 43.5625 136.8125 40.75 C137.039375 40.028125 137.26625 39.30625 137.5 38.5625 C141.00825087 40.04797559 143.18258106 42.01686604 145.75 44.8125 C146.80960937 45.93398437 146.80960937 45.93398437 147.890625 47.078125 C149.91674491 50.20582467 149.89600637 51.89001237 149.5 55.5625 C147.98834098 62.55392298 145.39745406 67.80294577 139.73828125 72.2578125 C136.17496928 74.33485647 132.56720451 75.10117356 128.5 75.5625 C129.76925868 78.36544625 130.61572689 79.66376103 133 81.75 C136.28419461 85.44471894 137.28789291 88.65009974 137.5 93.5625 C135.88150882 99.7127665 132.10175855 104.23381284 127.5 108.5625 C124.6875 110.125 124.6875 110.125 122.5 110.5625 C121.84 110.2325 121.18 109.9025 120.5 109.5625 C119.324375 109.376875 119.324375 109.376875 118.125 109.1875 C115.20243386 108.49165092 113.69030592 107.5963555 111.5 105.5625 C110.49740493 102.55471479 110.19685358 100.02429353 109.9375 96.875 C109.85371094 95.88113281 109.76992187 94.88726562 109.68359375 93.86328125 C109.62300781 93.10402344 109.56242188 92.34476562 109.5 91.5625 C99.93485729 99.50142061 93.0344062 107.39930237 87.5 118.5625 C87.19980957 119.16433105 86.89961914 119.76616211 86.59033203 120.38623047 C82.64011981 128.5689717 80.98815706 136.14083392 79.89306641 145.0949707 C78.95964423 151.62176582 76.78467139 157.05117965 74 163 C70.3146036 170.8921594 68.39071838 178.02437512 67.39501953 186.66235352 C66.85322937 191.36052868 66.04776784 195.47481547 64.375 199.9375 C62.79522306 204.15809808 62.26896739 207.6833775 62.125 212.1875 C61.5461695 224.34294046 56.9892995 236.2334346 50.40625 246.3984375 C49.23047307 248.53396169 49.23047307 248.53396169 50.21875 250.6640625 C50.6415625 251.29054687 51.064375 251.91703125 51.5 252.5625 C53.52350324 255.59775486 53.82124018 256.75676202 54.125 260.25 C54.23714844 261.46236328 54.23714844 261.46236328 54.3515625 262.69921875 C54.40054688 263.31410156 54.44953125 263.92898438 54.5 264.5625 C55.38042969 264.51609375 56.26085937 264.4696875 57.16796875 264.421875 C58.32941406 264.38578125 59.49085938 264.3496875 60.6875 264.3125 C61.83605469 264.26609375 62.98460937 264.2196875 64.16796875 264.171875 C68.16377354 264.64031636 69.7520331 265.66613265 72.5 268.5625 C72.85627284 272.00647075 73.06430248 274.43389505 71.5 277.5625 C71.38520676 279.38884335 71.33312735 281.21926418 71.31054688 283.04907227 C71.28541016 284.78268257 71.28541016 284.78268257 71.25976562 286.55131531 C71.24623047 287.81442032 71.23269531 289.07752533 71.21875 290.37890625 C71.19111876 292.3806064 71.16348301 294.38230649 71.13563538 296.38400364 C71.10687847 298.50840541 71.08036733 300.63282506 71.05444336 302.75726318 C70.96551692 309.99850668 70.85708263 317.23947528 70.75 324.48046875 C70.73964218 325.19021095 70.72928436 325.89995316 70.71861267 326.6312027 C69.91120361 381.76911637 69.91120361 381.76911637 67.5 397.5625 C73.93542227 400.94199549 80.34531202 403.96221327 87.125 406.5625 C99.01597573 411.2009732 109.41132395 417.01633764 115.25 428.8125 C117.71987255 433.68420454 120.72286677 437.25080831 124.5625 441.0625 C125.32288574 441.81901855 125.32288574 441.81901855 126.09863281 442.59082031 C128.33124548 444.73616473 130.39939848 446.50831847 133.1328125 447.98046875 C136.35879925 450.13644999 137.62941377 452.9995943 139.3125 456.375 C142.49206464 462.35310076 145.6219733 466.04309326 151.5 469.5625 C152.13035156 470.06523437 152.76070313 470.56796875 153.41015625 471.0859375 C156.47123471 473.24871817 159.82692051 474.20894017 163.35546875 475.40234375 C165.5 476.5625 165.5 476.5625 166.5 478.453125 C166.5 480.5625 166.5 480.5625 165.26953125 482.45703125 C160.55208752 487.08031443 155.7309265 490.47287493 149.9453125 493.6484375 C147.44532078 495.03732179 145.034502 496.45727737 142.6171875 497.9765625 C122.19300413 510.71107114 99.02019728 516.39504933 75.78125 521.875 C41.28576617 528.44233987 41.28576617 528.44233987 14.11914062 548.55517578 C13.17964938 550.18780826 12.32855577 551.8708653 11.5 553.5625 C9.25 553.9375 9.25 553.9375 6.5 553.5625 C3.04416774 549.20397471 1.4460653 544.88428339 -0.1875 539.625 C-5.55608695 523.51572796 -14.4019563 510.42429491 -28.63378906 501.00195312 C-38.8639372 494.09436622 -45.83541744 484.70641863 -48.5 472.5625 C-50.19270529 456.26101213 -50.19270529 456.26101213 -47.1484375 449.609375 C-45.39473106 447.5852733 -43.69239843 446.09094037 -41.5 444.5625 C-40.55125 443.758125 -39.6025 442.95375 -38.625 442.125 C-35.6695242 440.6472621 -34.01094321 440.26452101 -30.8046875 439.96484375 C-29.99757324 439.88613037 -29.19045898 439.80741699 -28.35888672 439.72631836 C-27.7454541 439.6722583 -27.13202148 439.61819824 -26.5 439.5625 C-26.95890625 438.3765625 -27.4178125 437.190625 -27.890625 435.96875 C-29.84212358 430.86168193 -31.69095004 425.72156783 -33.5 420.5625 C-33.73895996 419.89621582 -33.97791992 419.22993164 -34.22412109 418.54345703 C-40.83821712 399.46846546 -38.39620378 377.24117761 -34.88891602 357.72705078 C-34.76057373 357.01274902 -34.63223145 356.29844727 -34.5 355.5625 C-34.32976318 354.62180664 -34.15952637 353.68111328 -33.98413086 352.71191406 C-33.48422269 349.45986391 -33.21093543 346.25971596 -33 342.9765625 C-32.9184668 341.72343262 -32.83693359 340.47030273 -32.75292969 339.17919922 C-32.62772949 337.20330811 -32.62772949 337.20330811 -32.5 335.1875 C-32.40844076 333.82434357 -32.31631627 332.46122499 -32.22363281 331.09814453 C-31.66319908 322.78183128 -31.66319908 322.78183128 -31.359375 314.453125 C-31.1323724 304.67952793 -29.36995671 296.35891709 -22.171875 289.26953125 C-16.34680639 284.5625 -16.34680639 284.5625 -13.5 284.5625 C-12.63989373 281.57991478 -12.37769077 278.91574053 -12.359375 275.81640625 C-12.17834846 265.65113872 -11.73758532 257.47067323 -7.5234375 248.12890625 C-6.10416256 244.56988475 -6.29852629 242.16692114 -7.5 238.5625 C-8.03625 237.7375 -8.5725 236.9125 -9.125 236.0625 C-11.10503481 232.46243671 -10.59643229 230.46854002 -9.5 226.5625 C-6.95328565 222.51771839 -5.57602238 220.86454137 -0.9375 219.5625 C2.45749067 219.5625 3.65167371 219.96693866 6.5 221.5625 C6.24605469 221.06363281 5.99210937 220.56476563 5.73046875 220.05078125 C-0.10697483 207.87304314 -3.66183748 192.54349788 0.77734375 179.3515625 C2.45798679 174.9095992 4.32257092 170.5370705 6.7578125 166.453125 C7.76618508 163.88442853 7.22444054 162.17048593 6.5 159.5625 C-4.69989707 156.18594961 -17.82277972 152.51342121 -29.3125 156.55078125 C-32.25238857 158.24646698 -34.03429689 159.39600328 -35.3125 162.59765625 C-35.374375 163.24605469 -35.43625 163.89445313 -35.5 164.5625 C-33.6520137 166.65153546 -33.6520137 166.65153546 -32.09375 168.02734375 C-20.66317936 179.03767282 -14.57476289 193.46501921 -14.20703125 209.18554688 C-14.09317811 223.40580455 -16.55364483 234.77535581 -26.5 245.5625 C-27.9681332 246.64861895 -29.46683543 247.69529243 -31 248.6875 C-33.82940198 250.60160094 -33.82940198 250.60160094 -35.0703125 253.67578125 C-35.1854018 258.56707638 -33.96405301 262.91197866 -32.5 267.5625 C-29.66695926 282.86091998 -32.52818408 301.43136208 -40.875 314.7578125 C-41.83061359 316.04061988 -42.81938867 317.2993963 -43.83984375 318.53125 C-45.84374736 320.98308501 -47.58246185 323.57762058 -49.375 326.1875 C-52.91837395 331.05292825 -56.43484668 334.36741256 -61.5 337.5625 C-62.22574219 338.06265625 -62.95148437 338.5628125 -63.69921875 339.078125 C-72.36451182 344.74995319 -83.0255816 349.26401994 -93.5 348.5625 C-96.37109375 347.90625 -96.37109375 347.90625 -98.9375 347.0625 C-99.80246094 346.7840625 -100.66742188 346.505625 -101.55859375 346.21875 C-102.51958984 345.89390625 -102.51958984 345.89390625 -103.5 345.5625 C-103.1796875 343.17578125 -103.1796875 343.17578125 -102.5 340.5625 C-99.29266696 338.54048569 -97.30845564 337.5625 -93.5 337.5625 C-93.5 336.2425 -93.5 334.9225 -93.5 333.5625 C-91.52 333.5625 -89.54 333.5625 -87.5 333.5625 C-87.83 331.9125 -88.16 330.2625 -88.5 328.5625 C-86.42446352 328.0090236 -84.65634036 327.5625 -82.5 327.5625 C-82.17 325.9125 -81.84 324.2625 -81.5 322.5625 C-79.025 324.0475 -79.025 324.0475 -76.5 325.5625 C-76.17 323.5825 -75.84 321.6025 -75.5 319.5625 C-71.625 320.4375 -71.625 320.4375 -70.5 321.5625 C-69.84 320.2425 -69.18 318.9225 -68.5 317.5625 C-67.18 317.5625 -65.86 317.5625 -64.5 317.5625 C-62.75540339 316.12262465 -62.75540339 316.12262465 -61.3125 314.1875 C-60.80332031 313.56101562 -60.29414062 312.93453125 -59.76953125 312.2890625 C-57.46674191 309.157269 -57.22543342 306.63498467 -56.75 302.8125 C-55.84891712 297.16210062 -54.67521544 294.43221188 -50.5 290.5625 C-49.51 289.9025 -48.52 289.2425 -47.5 288.5625 C-44.99025706 280.15368837 -45.38037632 272.64918779 -47.7734375 264.3046875 C-48.5 261.5625 -48.5 261.5625 -48.5 257.5625 C-49.74394531 257.49933594 -50.98789063 257.43617188 -52.26953125 257.37109375 C-64.68914016 256.53962415 -73.32728551 254.41570974 -82.0625 244.9375 C-83.23086937 243.49715867 -84.37431243 242.0364395 -85.5 240.5625 C-86.24636719 239.59183594 -86.99273437 238.62117187 -87.76171875 237.62109375 C-89.01530609 235.98660968 -90.26799275 234.35145744 -91.51879883 232.71484375 C-94.69761789 228.56840152 -97.92847163 224.47070292 -101.25 220.4375 C-101.90307129 219.62116089 -101.90307129 219.62116089 -102.56933594 218.78833008 C-106.23954523 214.38949672 -110.09513074 212.52444771 -115.3125 210.4375 C-117.5 209.5625 -117.5 209.5625 -118.5 208.5625 C-118.54080783 206.56291636 -118.54254356 204.56204746 -118.5 202.5625 C-113.46174523 199.1582738 -109.58352634 199.45687993 -103.79296875 200.04296875 C-103.03628906 200.21441406 -102.27960938 200.38585937 -101.5 200.5625 C-101.005 201.5525 -101.005 201.5525 -100.5 202.5625 C-98.52111039 203.28943904 -96.52045442 203.96066251 -94.5 204.5625 C-94.5 205.8825 -94.5 207.2025 -94.5 208.5625 C-93.1696875 208.7171875 -93.1696875 208.7171875 -91.8125 208.875 C-88.35106181 209.5934117 -86.22824852 210.3157071 -83.5 212.5625 C-83.1875 215.25 -83.1875 215.25 -83.5 217.5625 C-82.84 217.8925 -82.18 218.2225 -81.5 218.5625 C-80.875 221.125 -80.875 221.125 -80.5 223.5625 C-79.51 223.8925 -78.52 224.2225 -77.5 224.5625 C-77.21125 225.34625 -76.9225 226.13 -76.625 226.9375 C-75.20309366 230.25528147 -73.5653165 230.79994301 -70.5 232.5625 C-70.21382812 233.23667969 -69.92765625 233.91085938 -69.6328125 234.60546875 C-68.67505183 236.78464239 -68.67505183 236.78464239 -66.3359375 237.171875 C-65.52382812 237.21828125 -64.71171875 237.2646875 -63.875 237.3125 C-63.05773438 237.36921875 -62.24046875 237.4259375 -61.3984375 237.484375 C-60.45871094 237.52304687 -60.45871094 237.52304687 -59.5 237.5625 C-60.29970532 233.09046367 -61.13573465 228.69978647 -62.5234375 224.3671875 C-67.79170203 207.66566803 -68.16878754 186.37136749 -60.39453125 170.2734375 C-60.09933594 169.70882812 -59.80414063 169.14421875 -59.5 168.5625 C-58.63689986 163.26059917 -60.61358753 160.08744333 -63.30859375 155.7109375 C-68.01235728 147.22874097 -66.6023073 131.72466689 -64.30859375 122.62890625 C-60.944119 114.0308041 -53.88701463 108.98177296 -45.69921875 105.3046875 C-43.31409186 104.33984126 -40.91803684 103.44015995 -38.5 102.5625 C-38.7673999 102.00788086 -39.0347998 101.45326172 -39.31030273 100.88183594 C-40.52322585 98.36055868 -41.7304128 95.83657612 -42.9375 93.3125 C-43.35837891 92.43980469 -43.77925781 91.56710938 -44.21289062 90.66796875 C-44.61572266 89.82363281 -45.01855469 88.97929688 -45.43359375 88.109375 C-45.80540771 87.33432617 -46.17722168 86.55927734 -46.56030273 85.76074219 C-48.55547929 81.0934079 -48.68288745 76.7151776 -48.6875 71.6875 C-48.69974609 70.99269531 -48.71199219 70.29789062 -48.72460938 69.58203125 C-48.73713776 65.14698236 -47.95902787 61.71511778 -46.5 57.5625 C-46.46557401 55.47635529 -46.46557401 55.47635529 -46.875 53.5 C-48.54264484 41.52510454 -49.10171078 26.62963049 -41.5 16.5625 C-36.55850823 12.24151518 -32.76462328 10.41230353 -26.125 10.8125 C-21.52484753 10.88742093 -21.52484753 10.88742093 -17.6875 8.375 C-16.965625 7.446875 -16.24375 6.51875 -15.5 5.5625 C-10.53109604 0.40277792 -7.03426086 -0.20238542 0 0 Z M-9.62109375 17.65234375 C-11.77269433 22.32848901 -9.83171109 27.45029224 -8.4375 32.125 C-7.9734375 33.3315625 -7.9734375 33.3315625 -7.5 34.5625 C-9.375 34.3125 -9.375 34.3125 -11.5 33.5625 C-12.16666667 32.22916667 -12.83333333 30.89583333 -13.5 29.5625 C-15.55000871 28.75721111 -15.55000871 28.75721111 -17.5 28.5625 C-17.5 27.5725 -17.5 26.5825 -17.5 25.5625 C-19.48 25.8925 -21.46 26.2225 -23.5 26.5625 C-23.45875 25.77875 -23.4175 24.995 -23.375 24.1875 C-23.21271266 21.40133881 -23.21271266 21.40133881 -25.5 19.5625 C-28.5635691 19.5625 -29.84714013 20.83863419 -32.25 22.75 C-36.21423367 27.6598307 -34.86497029 34.64187081 -34.5 40.5625 C-33.51 40.8925 -32.52 41.2225 -31.5 41.5625 C-28.71362255 40.07754289 -28.71362255 40.07754289 -25.75 38.0625 C-19.96768529 34.6028177 -19.96768529 34.6028177 -15.875 34.25 C-8.5089171 37.1145878 -1.79389354 40.77537796 2.5 47.5625 C3.3125 51.4375 3.3125 51.4375 3.5 54.5625 C-0.3626231 53.50905734 -2.20183942 51.87768529 -4.75 48.9375 C-7.45379246 46.11589524 -9.12320674 45.0272752 -13.0625 44.875 C-17.46006851 45.2551288 -20.10051563 46.69182431 -23.5 49.5625 C-24.35851562 50.25085937 -24.35851562 50.25085937 -25.234375 50.953125 C-27.99294205 53.35738069 -29.39998933 54.66240396 -29.8125 58.375 C-26.79009544 65.71512536 -21.35820708 70.81606 -15.5 76 C-8.86854624 81.88016232 -4.20697413 88.22840824 -0.125 96.0625 C3.56668357 102.95527796 9.10705713 109.06859458 15.5 113.5625 C15.335 112.263125 15.17 110.96375 15 109.625 C13.75761422 98.37253452 13.75761422 98.37253452 14.98632812 93.72167969 C15.92944112 89.75737773 15.9268835 85.68347478 16.125 81.625 C16.1765625 80.73103516 16.228125 79.83707031 16.28125 78.91601562 C16.49944242 74.59388039 16.55369299 70.79276745 15.5 66.5625 C15.06340289 59.43569422 15.06340289 59.43569422 16.5 56.5625 C17.8493551 40.2447174 11.2264578 27.99598954 1.4921875 15.29296875 C-0.39244067 13.3489521 -0.39244067 13.3489521 -3.0625 13.1484375 C-6.21299702 13.68361808 -7.71902508 15.13016492 -9.62109375 17.65234375 Z M54.875 14.4375 C52.12971278 16.48930853 52.12971278 16.48930853 51.5625 20.4375 C51.04267235 30.78374705 52.99510389 38.94091502 58.84375 47.515625 C62.73969716 54.68269761 62.85775498 62.62435226 63.125 70.625 C63.16367188 71.58599609 63.20234375 72.54699219 63.2421875 73.53710938 C63.33538626 75.87872814 63.42119185 78.22036037 63.5 80.5625 C69.06297291 75.09935206 71.39352675 71.04786435 73.5 63.5625 C73.87640625 62.44230469 74.2528125 61.32210937 74.640625 60.16796875 C77.1504678 52.43517844 77.93658416 47.29277969 75.5 39.5625 C75.27699219 38.62277344 75.05398437 37.68304688 74.82421875 36.71484375 C72.53253976 27.20245554 67.89125694 20.92171285 60.5 14.5625 C57.5625 13.25 57.5625 13.25 54.875 14.4375 Z M115.5 89.5625 C115.74631557 93.61335679 115.74631557 93.61335679 116.5 97.5625 C118.42064793 99.1524433 118.42064793 99.1524433 120.5 99.5625 C121.82 98.2425 123.14 96.9225 124.5 95.5625 C123.34826645 93.09449953 122.45216435 91.51466435 120.5 89.5625 C117.91645782 89.39562552 117.91645782 89.39562552 115.5 89.5625 Z M-41.04296875 120.40625 C-47.64571014 126.17960952 -50.95155425 129.91480137 -51.58203125 138.7890625 C-51.46602702 142.71111036 -50.39193545 145.15701619 -48.5 148.5625 C-45.15140568 147.94821648 -43.1421239 146.71975945 -40.4375 144.6875 C-30.9841216 138.27270751 -19.57248067 137.74337937 -8.5 136.5625 C-14.29971829 125.16467017 -14.29971829 125.16467017 -23.5 116.5625 C-29.93466946 114.70614479 -35.70157297 116.53353294 -41.04296875 120.40625 Z M38.5 119.5625 C39.5 121.5625 39.5 121.5625 39.5 121.5625 Z M-46.5 177.5625 C-51.99249853 196.42661699 -51.66535445 218.05359522 -43.3359375 236.08203125 C-42.92214844 236.81486328 -42.92214844 236.81486328 -42.5 237.5625 C-39.40989789 236.21141639 -37.53089847 234.77232067 -35.375 232.1875 C-34.62863281 231.30964844 -34.62863281 231.30964844 -33.8671875 230.4140625 C-28.34821154 222.93979221 -27.99137188 214.23293482 -28.84375 205.25390625 C-30.80220886 194.23757517 -36.03853387 184.9070526 -44.5 177.5625 C-45.16 177.5625 -45.82 177.5625 -46.5 177.5625 Z M-0.5 252.5625 C-2.05024464 255.66298928 -1.78992015 258.14144218 -1.5 261.5625 C0.29562405 264.31579021 1.55254922 266.08877461 4.5 267.5625 C8.68144011 267.95697548 10.80946048 268.01285186 14.375 265.6875 C17.10044891 262.96205109 17.44669869 262.12749391 17.8125 258.25 C17.45124058 253.98713889 16.48007946 252.54257946 13.5 249.5625 C8.00957354 246.81728677 3.59851479 248.46398521 -0.5 252.5625 Z " fill="#FFFFFF" transform="translate(118.5,-0.5625)"/>
</svg>
