<svg width="32" height="32" viewBox="0 0 32 32" fill="none" xmlns="http://www.w3.org/2000/svg">
<rect width="32" height="32" fill="black"/>
<path d="M11.7695 7C12.4076 7 13.0273 7.10938 13.6289 7.32812C14.2487 7.54688 14.8411 7.86589 15.4062 8.28516C15.4974 8.3763 15.5977 8.46745 15.707 8.55859C15.7982 8.46745 15.8984 8.3763 16.0078 8.28516C16.5729 7.86589 17.1562 7.54688 17.7578 7.32812C18.3776 7.10938 18.9974 7 19.6172 7C20.2552 7 20.875 7.10938 21.4766 7.32812C22.0964 7.54688 22.6797 7.875 23.2266 8.3125C23.7917 8.73177 24.2839 9.29688 24.7031 10.0078C25.1406 10.7188 25.3594 11.5664 25.3594 12.5508V22.4219C25.25 23.5156 24.6484 24.1081 23.5547 24.1992C23.0443 24.1992 22.5977 24.0352 22.2148 23.707C21.8503 23.3607 21.668 22.9323 21.668 22.4219V12.7695C21.668 12.332 21.5859 11.9674 21.4219 11.6758C21.2578 11.3659 21.0755 11.1289 20.875 10.9648C20.6745 10.7826 20.4648 10.6549 20.2461 10.582C20.0273 10.4909 19.8086 10.4453 19.5898 10.4453C19.3711 10.4453 19.1523 10.4909 18.9336 10.582C18.7331 10.6549 18.5326 10.7826 18.332 10.9648C18.1315 11.1289 17.9492 11.3659 17.7852 11.6758C17.6211 11.9674 17.5299 12.332 17.5117 12.7695V13.4258C17.4023 14.5195 16.8008 15.112 15.707 15.2031C15.1966 15.2031 14.75 15.0391 14.3672 14.7109C14.0026 14.3646 13.8203 13.9362 13.8203 13.4258V12.7695C13.8203 12.332 13.7383 11.9674 13.5742 11.6758C13.4102 11.3659 13.2279 11.1289 13.0273 10.9648C12.8268 10.7826 12.6172 10.6549 12.3984 10.582C12.1797 10.4909 11.9609 10.4453 11.7422 10.4453C11.5234 10.4453 11.3047 10.4909 11.0859 10.582C10.8854 10.6549 10.6849 10.7826 10.4844 10.9648C10.2839 11.1289 10.1016 11.3659 9.9375 11.6758C9.77344 11.9674 9.68229 12.332 9.66406 12.7695V22.4219C9.57292 23.5156 8.98047 24.1081 7.88672 24.1992C7.3763 24.1992 6.92969 24.0352 6.54688 23.707C6.18229 23.3607 6 22.9323 6 22.4219V12.5508C6.03646 11.5664 6.26432 10.7188 6.68359 10.0078C7.10286 9.29688 7.59505 8.73177 8.16016 8.3125C8.72526 7.875 9.30859 7.54688 9.91016 7.32812C10.5299 7.10938 11.1497 7 11.7695 7Z" fill="white"/>
</svg>
