<svg width="446" height="198" viewBox="0 0 446 198" fill="none" xmlns="http://www.w3.org/2000/svg">
<path d="M445.503 80.419C445.519 80.786 440.349 67.603 414.853 62.804C414.855 62.848 405.36 60.868 392.165 65.225C392.163 65.185 384.425 67.216 382.171 67.082C382.169 67.046 375.493 60.456 371.893 56.964C371.891 56.928 375.7 63.739 376.568 65.596C377.437 67.412 378.587 69.085 376.914 72.299C376.913 72.273 374.33 78.195 373.697 79.32C373.696 79.309 378.014 76.343 379.786 73.341C380.521 72.078 382.264 68.613 383.086 68.64C383.907 68.682 388.511 68.991 397.181 72.537C434.076 88.579 445.533 81.115 445.503 80.419Z" fill="white"/>
<path d="M388.538 36.17C388.543 36.281 384.074 27.913 361.54 29.075C361.541 29.111 353.148 29.343 341.426 34.664C341.425 34.64 334.552 37.346 332.552 37.549C332.551 37.529 326.663 33.367 323.483 31.074C323.482 31.054 326.829 35.853 327.59 37.166C328.351 38.457 329.362 39.59 327.861 42.31C327.86 42.289 325.538 47.239 324.97 48.199C324.97 48.193 328.816 45.295 330.403 42.722C331.062 41.639 332.627 38.715 333.355 38.621C334.084 38.53 338.166 38.144 345.83 39.487C378.433 45.739 388.554 36.531 388.538 36.17Z" fill="white"/>
<path d="M340.617 6.45C340.613 6.383 336.167 -0.442996 308.904 0.742004C308.907 0.822004 298.757 0.872003 284.093 6.078C284.092 6.051 275.552 8.7 273.138 8.789C273.139 8.806 266.545 3.523 262.987 0.244995C262.988 0.255995 266.468 6.375 267.239 7.939C268.011 9.528 269.097 10.906 267.014 13.971C267.013 13.939 263.722 19.581 262.951 20.687C262.95 20.678 267.839 17.481 270.011 14.604C270.913 13.384 273.1 10.125 273.984 10.068C274.865 9.98299 279.794 9.905 288.833 11.492C327.226 17.627 340.607 6.253 340.617 6.45Z" fill="white"/>
<path d="M344.112 69.409C344.117 69.521 340.111 60.413 317.621 63.566C317.622 63.593 309.252 64.592 297.316 71.684C297.315 71.667 290.344 75.282 288.353 75.607C288.352 75.592 282.764 70.9 279.752 68.251C279.752 68.237 282.782 73.859 283.461 75.375C284.14 76.875 285.076 78.182 283.436 81.443C283.436 81.431 280.86 87.298 280.247 88.411C280.247 88.408 284.214 84.921 285.93 81.818C286.644 80.524 288.36 76.995 289.088 76.842C289.815 76.693 293.877 76.059 301.405 77.17C333.417 82.259 344.12 69.599 344.112 69.409Z" fill="white"/>
<path d="M192.71 139.588C192.707 139.52 188.771 132.007 166.36 136.966C166.358 136.924 158.026 138.779 146.062 145.24C146.063 145.261 139.071 148.398 137.073 148.563C137.074 148.578 131.494 144.093 128.478 141.323C128.479 141.344 131.499 146.763 132.172 148.113C132.845 149.486 133.777 150.711 132.112 153.419C132.113 153.44 129.49 158.213 128.865 159.043C128.866 159.049 132.871 156.45 134.611 153.869C135.335 152.816 137.073 149.806 137.803 149.686C138.531 149.571 142.606 149.222 150.128 150.179C182.094 154.225 192.713 139.641 192.71 139.588Z" fill="white"/>
<path d="M87.122 152.907C87.109 152.608 82.225 144.04 53.814 141.121C53.812 141.076 43.246 139.928 28.031 142.019C28.033 142.058 19.139 142.457 16.592 141.53C16.594 141.59 9.459 132.287 5.591 126.56C5.592 126.589 9.475 135.817 10.34 138.065C11.207 140.359 12.401 142.548 10.296 145.376C10.296 145.366 6.988 150.685 6.202 151.615C6.202 151.617 11.282 150.009 13.482 147.407C14.398 146.326 16.598 143.198 17.527 143.454C18.452 143.658 23.65 145.603 33.21 150.405C73.75 168.878 87.088 152.131 87.122 152.907Z" fill="white"/>
<path d="M165.573 188.835C165.572 188.805 161.894 182.66 140.598 184.645C140.596 184.612 132.68 185.364 121.274 189.16C121.275 189.171 114.616 190.948 112.72 190.963C112.721 190.973 107.486 187.585 104.66 185.496C104.661 185.517 107.462 189.449 108.084 190.407C108.707 191.391 109.576 192.284 107.969 194.061C107.969 194.078 105.43 197.219 104.829 197.754C104.829 197.754 108.652 196.162 110.329 194.487C111.027 193.804 112.707 191.822 113.399 191.777C114.091 191.738 117.954 191.694 125.073 192.838C155.338 198.039 165.587 189.149 165.573 188.835Z" fill="white"/>
<path d="M258.875 112.91C258.875 112.914 256.588 107.982 243.735 111.357C243.735 111.351 238.955 112.552 232.123 117.19C232.123 117.19 228.129 119.537 226.986 119.759C226.986 119.757 223.778 117.123 222.048 115.587C222.048 115.587 223.79 118.865 224.18 119.731C224.571 120.596 225.108 121.345 224.166 123.257C224.166 123.259 222.689 126.654 222.336 127.28C222.336 127.282 224.614 125.247 225.599 123.422C226.008 122.668 226.99 120.575 227.408 120.466C227.826 120.356 230.155 119.903 234.469 120.286C252.806 122.022 258.878 112.966 258.875 112.91Z" fill="white"/>
<path d="M265.014 27.492C265.015 27.499 262.76 23.3109 249.846 25.2579C249.847 25.2749 245.039 25.89 238.169 29.662C238.169 29.657 234.156 31.5599 233.01 31.6939C233.01 31.6999 229.796 28.9059 228.059 27.2169C228.059 27.2219 229.805 30.576 230.194 31.438C230.587 32.31 231.124 33.069 230.176 34.856C230.176 34.852 228.69 38.0679 228.337 38.6699C228.337 38.6699 230.622 36.805 231.612 35.113C232.023 34.408 233.012 32.4709 233.431 32.3999C233.849 32.3209 236.188 32.0839 240.513 32.7089C258.882 35.1419 265.01 27.388 265.014 27.492Z" fill="white"/>
<path d="M38.134 81.397C38.131 81.319 35.806 75.538 22.69 72.885C22.689 72.855 17.813 71.874 10.818 72.802C10.819 72.819 6.728 72.938 5.556 72.484C5.556 72.484 2.269 68.026 0.496002 65.522C0.496002 65.518 2.28 69.747 2.679 70.827C3.079 71.905 3.63 72.964 2.663 74.284C2.663 74.29 1.144 76.735 0.781002 77.125C0.781002 77.13 3.122 76.519 4.132 75.293C4.552 74.793 5.56 73.296 5.989 73.424C6.416 73.55 8.805 74.461 13.221 77.189C31.987 88.731 38.131 81.322 38.134 81.397Z" fill="white"/>
<path d="M167.667 83.8339C167.667 83.8229 165.766 79.634 155.079 81.729C155.079 81.726 151.103 82.455 145.425 86.018C145.425 86.02 142.105 87.7719 141.153 87.8659C141.153 87.8709 138.472 85.165 137.021 83.535C137.022 83.541 138.488 86.746 138.815 87.563C139.145 88.387 139.594 89.121 138.816 90.753C138.816 90.756 137.594 93.6759 137.302 94.2029C137.302 94.2029 139.194 92.5869 140.009 91.0339C140.347 90.3959 141.16 88.6009 141.507 88.5409C141.853 88.4769 143.795 88.3019 147.386 88.9709C162.647 91.6749 167.665 83.7729 167.667 83.8339Z" fill="white"/>
<path d="M132.697 171.254C132.696 171.237 130.843 168.151 120.109 169.194C120.108 169.185 116.117 169.552 110.379 171.726C110.379 171.731 107.028 172.765 106.072 172.773C106.073 172.777 103.421 170.777 101.989 169.576C101.989 169.58 103.416 171.863 103.731 172.437C104.05 173.019 104.492 173.543 103.688 174.611C103.689 174.615 102.423 176.518 102.123 176.855C102.123 176.857 104.043 175.877 104.881 174.869C105.229 174.454 106.068 173.277 106.417 173.253C106.766 173.228 108.714 173.216 112.306 173.863C127.566 176.576 132.697 171.254 132.697 171.254Z" fill="white"/>
<path d="M362.698 140.039C362.699 140.072 360.234 133.2 346.688 134.032C346.689 134.038 341.646 134.257 334.482 138.499C334.482 138.495 330.293 140.537 329.089 140.566C329.088 140.557 325.679 136.451 323.841 134.158C323.84 134.147 325.711 138.679 326.13 139.883C326.552 141.078 327.124 142.155 326.153 144.41C326.153 144.406 324.631 148.479 324.266 149.226C324.266 149.226 326.645 147.085 327.663 144.953C328.088 144.069 329.102 141.608 329.54 141.567C329.978 141.526 332.433 141.48 336.989 143.026C356.365 149.772 362.7 140.087 362.698 140.039Z" fill="white"/>
<path d="M398.661 111.907C398.663 111.954 396.719 106.766 385.904 105.94C385.904 105.951 381.878 105.56 376.151 107.993C376.15 107.984 372.803 109.105 371.844 109.033C371.843 109.027 369.137 105.753 367.677 103.909C367.677 103.903 369.156 107.38 369.487 108.29C369.82 109.2 370.273 110.032 369.493 111.602C369.493 111.598 368.269 114.463 367.977 114.988C367.977 114.986 369.879 113.589 370.697 112.116C371.037 111.503 371.853 109.792 372.202 109.798C372.552 109.805 374.508 109.974 378.138 111.483C393.563 117.975 398.663 111.948 398.661 111.907Z" fill="white"/>
<path d="M102.823 60.38C102.82 60.324 98.971 50.254 77.61 50.73C77.608 50.678 69.667 50.894 58.321 56.078C58.323 56.106 51.682 58.313 49.774 58.006C49.774 58.013 44.377 50.899 41.461 46.793C41.462 46.798 44.419 54.283 45.082 56.184C45.744 58.09 46.653 59.887 45.101 62.905C45.102 62.928 42.662 68.343 42.077 69.247C42.077 69.257 45.87 66.987 47.496 64.141C48.173 62.98 49.792 59.59 50.488 59.627C51.183 59.664 55.074 60.275 62.281 63.446C92.896 76.618 102.814 60.181 102.823 60.38Z" fill="white"/>
<path d="M335.589 116.451C335.592 116.531 331.524 105.998 309.052 109.568C309.052 109.568 300.693 110.782 288.784 118.506C288.784 118.5 281.823 122.349 279.829 122.623C279.828 122.598 274.209 117.205 271.183 114.228C271.183 114.209 274.241 120.494 274.929 122.197C275.615 123.874 276.56 125.366 274.93 128.88C274.93 128.878 272.373 135.181 271.763 136.341C271.763 136.343 275.726 132.759 277.432 129.406C278.14 128.017 279.842 124.169 280.571 124.022C281.3 123.885 285.364 123.32 292.91 124.834C325.006 131.875 335.599 116.678 335.589 116.451Z" fill="white"/>
<path d="M279.006 48.4419C279.007 48.4649 275.586 41.9169 256.094 46.0029C256.095 46.0279 248.839 47.3859 238.479 53.8789C238.478 53.8699 232.427 57.1969 230.697 57.5089C230.698 57.5169 225.843 53.4879 223.218 51.0329C223.219 51.0409 225.859 56.0759 226.448 57.3759C227.039 58.6889 227.851 59.8139 226.427 62.6689C226.426 62.6639 224.189 67.7779 223.656 68.7389C223.656 68.7389 227.103 65.6529 228.594 62.9389C229.214 61.8089 230.704 58.7139 231.337 58.5649C231.967 58.4059 235.497 57.8129 242.025 58.4049C269.755 60.6769 279.002 48.3389 279.006 48.4419Z" fill="white"/>
<path d="M209.813 39.04C209.814 39.053 205.028 28.69 178 32.253C178.001 32.281 167.943 33.398 153.622 42.322C153.622 42.322 145.249 46.678 142.845 46.799C142.847 46.841 136.03 38.837 132.332 33.808C132.334 33.853 136.089 43.271 136.928 45.585C137.767 47.96 138.916 50.066 136.968 54.503C136.969 54.517 133.913 62.452 133.18 63.868C133.18 63.87 137.944 59.628 139.987 55.444C140.836 53.714 142.871 48.85 143.747 48.731C144.622 48.587 149.529 48.436 158.61 50.629C197.151 58.718 209.789 38.468 209.813 39.04Z" fill="white"/>
<path d="M123.25 107.953C123.239 107.708 117.866 96.476 87.28 97.572C87.276 97.466 75.91 98.013 59.573 103.544C59.575 103.61 50.018 105.71 47.274 105.034C47.276 105.078 39.565 95.399 35.391 89.585C35.393 89.611 39.598 99.61 40.536 102.078C41.475 104.578 42.77 106.961 40.51 110.497C40.512 110.53 36.957 116.907 36.107 117.939C36.107 117.957 41.587 115.703 43.949 112.377C44.932 111.028 47.289 107.018 48.289 107.149C49.287 107.256 54.882 108.604 65.198 112.942C108.972 129.952 123.221 107.282 123.25 107.953Z" fill="white"/>
<path d="M218.22 102.382C218.219 102.351 214.416 94.708 192.906 100.402C192.905 100.385 184.905 102.446 173.456 109.916C173.457 109.926 166.765 113.652 164.849 113.947C164.85 113.96 159.472 109.364 156.564 106.521C156.565 106.541 159.491 112.271 160.145 113.716C160.799 115.184 161.701 116.47 160.121 119.552C160.122 119.565 157.636 125.021 157.044 125.999C157.044 126.003 160.867 122.847 162.52 119.907C163.208 118.697 164.857 115.301 165.557 115.137C166.255 114.972 170.162 114.379 177.384 115.067C208.069 117.808 218.217 102.324 218.22 102.382Z" fill="white"/>
<path d="M70.103 183.214C70.101 183.17 67.341 178.711 51.213 177.816C51.214 177.828 45.212 177.381 36.596 179.469C36.596 179.469 31.567 180.355 30.131 180.144C30.132 180.169 26.127 176.113 23.958 173.581C23.958 173.6 26.127 177.933 26.609 178.987C27.093 180.069 27.761 181.062 26.565 182.72C26.565 182.713 24.685 185.771 24.239 186.328C24.239 186.324 27.108 184.963 28.359 183.43C28.878 182.787 30.129 180.988 30.653 181.037C31.176 181.067 34.105 181.549 39.502 183.343C62.408 190.301 70.092 182.978 70.103 183.214Z" fill="white"/>
<path d="M286.034 159.612C286.032 159.569 280.587 146.887 252.576 153.111C252.573 153.035 242.157 155.416 227.454 164.509C227.455 164.537 218.831 168.94 216.331 169.207C216.329 169.172 209.093 163.33 205.189 160.128C205.188 160.113 209.238 166.931 210.155 168.76C211.069 170.562 212.305 172.199 210.36 175.905C210.361 175.936 207.327 182.46 206.589 183.587C206.59 183.602 211.478 180.073 213.523 176.511C214.374 175.057 216.398 170.907 217.307 170.737C218.218 170.595 223.315 169.946 232.843 171.591C273.397 179.997 286.058 160.151 286.034 159.612Z" fill="white"/>
</svg>
